<?xml version="1.0" encoding="UTF-8"?>
<svg xmlns="http://www.w3.org/2000/svg" xmlns:xlink="http://www.w3.org/1999/xlink" width="800px" height="260px" viewBox="0 270 800 260" version="1.1">
<g id="surface1">
<path style=" stroke:none;fill-rule:nonzero;fill:rgb(23.137255%,23.137255%,23.137255%);fill-opacity:1;" d="M 71.5 345.5 C 84.617188 345.46875 97.734375 345.4375 111.25 345.40625 C 115.378906 345.394531 119.507812 345.378906 123.765625 345.363281 C 128.839844 345.359375 128.839844 345.359375 131.21875 345.355469 C 132.871094 345.355469 134.519531 345.351562 136.167969 345.339844 C 138.285156 345.332031 140.398438 345.328125 142.511719 345.332031 C 143.28125 345.328125 144.050781 345.328125 144.824219 345.320312 C 158.386719 345.222656 171.863281 349.105469 181.84375 358.6875 C 183 360 183 360 183 361 C 183.328125 361 183.660156 361 184 361 C 187.917969 365.707031 190.230469 371.359375 190.5 377.5 C 190.527344 377.964844 190.550781 378.429688 190.578125 378.90625 C 190.777344 385.695312 189.433594 391.878906 186.5 398 C 186.171875 398 185.839844 398 185.5 398 C 185.398438 398.328125 185.292969 398.660156 185.1875 399 C 183.027344 403.710938 178.972656 407.515625 174.359375 409.820312 C 172.945312 410.355469 172.945312 410.355469 172.5 411.5 C 173.140625 411.601562 173.777344 411.707031 174.4375 411.8125 C 177.347656 412.46875 179.554688 413.832031 182 415.5 C 182.5 415.835938 182.996094 416.175781 183.507812 416.523438 C 186.960938 418.972656 189.566406 421.546875 192 425 C 192.234375 425.292969 192.46875 425.585938 192.710938 425.890625 C 197.949219 433.015625 197.90625 443.640625 197 452 C 196.351562 455.296875 195.28125 458.402344 194 461.5 C 193.671875 461.5 193.339844 461.5 193 461.5 C 192.871094 461.863281 192.746094 462.222656 192.613281 462.597656 C 190.535156 467.351562 186.027344 471.550781 181.5 474 C 181.132812 474.230469 180.765625 474.457031 180.390625 474.695312 C 165.515625 483.3125 147.890625 482.660156 131.28125 482.601562 C 129.378906 482.59375 127.476562 482.59375 125.574219 482.59375 C 120.046875 482.589844 114.523438 482.574219 109 482.5625 C 96.625 482.542969 84.25 482.519531 71.5 482.5 C 71.5 437.289062 71.5 392.078125 71.5 345.5 Z M 71.5 345.5 "/>
<path style=" stroke:none;fill-rule:nonzero;fill:rgb(23.529412%,23.529412%,23.529412%);fill-opacity:1;" d="M 448.5625 375.28125 C 449.128906 375.285156 449.128906 375.285156 449.710938 375.285156 C 458.296875 375.332031 466.722656 376.046875 474.5 380 C 474.851562 380.164062 475.207031 380.328125 475.570312 380.5 C 477.945312 381.625 480.167969 382.980469 482.398438 384.367188 C 483.527344 385.066406 483.527344 385.066406 485 385.5 C 485 385.828125 485 386.160156 485 386.5 C 485.289062 386.628906 485.578125 386.761719 485.878906 386.898438 C 487.066406 387.535156 487.941406 388.253906 488.9375 389.15625 C 490.089844 390.195312 491.242188 391.191406 492.460938 392.152344 C 501 399.257812 505.789062 412.214844 506.925781 422.9375 C 507.683594 433.691406 506.105469 442.917969 502.5 453 C 502.171875 453 501.839844 453 501.5 453 C 501.371094 453.4375 501.242188 453.871094 501.109375 454.320312 C 500.492188 456.019531 499.738281 457.339844 498.75 458.84375 C 498.445312 459.308594 498.140625 459.777344 497.828125 460.257812 C 497.21875 461.171875 496.609375 462.085938 496 463 C 495.671875 463 495.339844 463 495 463 C 494.808594 463.425781 494.808594 463.425781 494.617188 463.859375 C 492.882812 467.0625 489.34375 471.199219 485.8125 472.40625 C 485.542969 472.4375 485.277344 472.46875 485 472.5 C 485 472.828125 485 473.160156 485 473.5 C 482.074219 475.695312 478.285156 478.5 474.5 478.5 C 474.5 478.828125 474.5 479.160156 474.5 479.5 C 455.414062 485.566406 436.195312 486.160156 418.0625 476.8125 C 414.738281 475.039062 411.828125 473 409 470.5 C 408.4375 470.050781 407.875 469.601562 407.3125 469.15625 C 406.027344 468.023438 405.035156 466.859375 404 465.5 C 403.765625 465.265625 403.53125 465.035156 403.289062 464.796875 C 401.046875 462.535156 399.28125 460.117188 398.5 457 C 398.171875 457 397.839844 457 397.5 457 C 397.300781 456.5 397.101562 456 396.898438 455.484375 C 396.628906 454.8125 396.363281 454.140625 396.09375 453.46875 C 395.964844 453.140625 395.832031 452.8125 395.699219 452.472656 C 395.0625 450.875 394.410156 449.292969 393.710938 447.71875 C 392.316406 444.347656 391.757812 441.136719 391.4375 437.53125 C 391.394531 437.066406 391.355469 436.605469 391.3125 436.128906 C 390.429688 425.601562 391.519531 416.285156 395.5 406.5 C 395.679688 406.050781 395.855469 405.601562 396.039062 405.140625 C 400.683594 394.753906 409.765625 387.042969 419.53125 381.71875 C 419.847656 381.546875 420.164062 381.371094 420.488281 381.191406 C 422.167969 380.308594 423.054688 380 425 380 C 425 379.671875 425 379.339844 425 379 C 426 378.691406 427 378.390625 428 378.09375 C 428.558594 377.925781 429.113281 377.757812 429.6875 377.585938 C 435.992188 375.910156 442.054688 375.226562 448.5625 375.28125 Z M 448.5625 375.28125 "/>
<path style=" stroke:none;fill-rule:nonzero;fill:rgb(23.529412%,23.529412%,23.529412%);fill-opacity:1;" d="M 262.28125 375.34375 C 262.714844 375.34375 263.152344 375.339844 263.597656 375.339844 C 275.324219 375.3125 287.597656 377.46875 297 385 C 297.261719 385.273438 297.523438 385.542969 297.796875 385.824219 C 298.535156 386.632812 298.535156 386.632812 300 387 C 300.773438 387.847656 301.507812 388.726562 302.21875 389.625 C 302.789062 390.339844 302.789062 390.339844 303.375 391.070312 C 303.746094 391.542969 304.117188 392.015625 304.5 392.5 C 304.878906 392.929688 305.253906 393.359375 305.640625 393.804688 C 306.5 395 306.5 395 306.5 397 C 306.828125 397 307.160156 397 307.5 397 C 311.371094 405.09375 312.582031 413.660156 312.558594 422.558594 C 312.558594 423.207031 312.558594 423.855469 312.558594 424.527344 C 312.558594 426.296875 312.554688 428.066406 312.550781 429.832031 C 312.546875 431.6875 312.546875 433.539062 312.546875 435.394531 C 312.546875 438.898438 312.542969 442.402344 312.535156 445.90625 C 312.53125 450.644531 312.527344 455.382812 312.523438 460.121094 C 312.519531 467.582031 312.507812 475.039062 312.5 482.5 C 302.929688 482.5 293.359375 482.5 283.5 482.5 C 283.5 478.539062 283.5 474.578125 283.5 470.5 C 281.460938 472.238281 281.460938 472.238281 281 474 C 271.351562 482.847656 259.820312 484.589844 247.113281 484.066406 C 244.367188 483.90625 241.695312 483.535156 239 483 C 238.546875 482.914062 238.097656 482.828125 237.632812 482.742188 C 228.585938 480.664062 220.988281 475.265625 216 467.5 C 215.742188 467.117188 215.488281 466.738281 215.226562 466.34375 C 211.308594 459.074219 211.074219 450.445312 213.023438 442.585938 C 215.238281 435.242188 221.121094 429.09375 227.8125 425.4375 C 239.464844 420.125 251.710938 420.285156 264.25 420.398438 C 266.203125 420.414062 268.152344 420.417969 270.105469 420.425781 C 273.902344 420.441406 277.703125 420.46875 281.5 420.5 C 281.347656 419.472656 281.195312 418.449219 281.042969 417.421875 C 280.914062 416.566406 280.914062 416.566406 280.785156 415.691406 C 279.957031 410.785156 278.765625 407.753906 274.71875 404.71875 C 272.117188 402.957031 269.503906 401.886719 266.5 401 C 266.140625 400.886719 265.785156 400.773438 265.414062 400.65625 C 258.007812 398.644531 247.113281 399.667969 240.15625 402.953125 C 238.710938 403.636719 237.222656 404.148438 235.71875 404.6875 C 233.179688 405.648438 231.074219 406.804688 228.902344 408.429688 C 228 409 228 409 226.5 409 C 226.09375 408.1875 225.6875 407.375 225.28125 406.5625 C 224.921875 405.847656 224.566406 405.128906 224.207031 404.414062 C 223.273438 402.554688 222.347656 400.695312 221.429688 398.828125 C 221.089844 398.136719 220.75 397.441406 220.40625 396.75 C 220.160156 396.246094 220.160156 396.246094 219.90625 395.734375 C 219.015625 393.949219 218.0625 392.273438 216.9375 390.625 C 216.472656 389.820312 216.472656 389.820312 216 389 C 216.707031 386.683594 218.480469 385.929688 220.476562 384.789062 C 224.246094 382.835938 228.191406 381.144531 232.253906 379.890625 C 233.238281 379.582031 234.210938 379.25 235.183594 378.90625 C 244.105469 375.824219 252.914062 375.363281 262.28125 375.34375 Z M 262.28125 375.34375 "/>
<path style=" stroke:none;fill-rule:nonzero;fill:rgb(94.901961%,71.764708%,9.803922%);fill-opacity:1;" d="M 416.625 277.75 C 417.261719 277.75 417.894531 277.75 418.550781 277.75 C 427.246094 277.765625 435.832031 278.128906 444.46875 279.15625 C 445.144531 279.234375 445.144531 279.234375 445.832031 279.316406 C 450.21875 279.851562 454.515625 280.5 458.785156 281.671875 C 460.390625 282.105469 462.015625 282.417969 463.648438 282.734375 C 465.292969 283.058594 466.925781 283.421875 468.5625 283.78125 C 471.042969 284.316406 473.476562 284.746094 476 285 C 476 285.328125 476 285.660156 476 286 C 476.429688 286.128906 476.429688 286.128906 476.867188 286.257812 C 477.738281 286.519531 478.609375 286.78125 479.480469 287.042969 C 480.503906 287.351562 481.527344 287.65625 482.550781 287.957031 C 486.445312 289.125 490.21875 290.507812 494 292 C 494.675781 292.25 495.351562 292.503906 496.03125 292.75 C 502.84375 295.300781 502.84375 295.300781 505.132812 296.6875 C 507.105469 297.859375 509.175781 298.808594 511.25 299.78125 C 511.671875 299.980469 512.089844 300.179688 512.523438 300.386719 C 516.039062 302.253906 516.039062 302.253906 519.84375 302.96875 C 521.128906 302.59375 521.128906 302.59375 521.65625 301.21875 C 521.769531 300.816406 521.882812 300.414062 522 300 C 522.328125 300 522.660156 300 523 300 C 523.144531 299.617188 523.289062 299.238281 523.4375 298.84375 C 524 297.5 524 297.5 525 296 C 525.328125 296 525.660156 296 526 296 C 526.125 295.730469 526.246094 295.464844 526.375 295.1875 C 527.148438 293.714844 528.058594 292.371094 529 291 C 529.269531 290.609375 529.535156 290.214844 529.8125 289.8125 C 530.039062 289.542969 530.265625 289.277344 530.5 289 C 530.828125 289 531.160156 289 531.5 289 C 531.664062 288.503906 531.828125 288.011719 532 287.5 C 533.5 288 533.5 288 534.105469 288.914062 C 538.5 298.058594 538.5 298.058594 538.5 301 C 538.828125 301 539.160156 301 539.5 301 C 540.664062 303.246094 541.65625 305.421875 542.511719 307.804688 C 543.289062 309.707031 544.25 311.519531 545.183594 313.347656 C 546.304688 315.554688 547.265625 317.785156 548.136719 320.101562 C 548.429688 320.996094 548.429688 320.996094 549 321.5 C 549.019531 322.332031 549.019531 323.167969 549 324 C 549.328125 324 549.660156 324 550 324 C 550.15625 324.421875 550.316406 324.84375 550.476562 325.28125 C 551.914062 329.113281 551.914062 329.113281 553.65625 332.8125 C 554.5 334.5 554.5 334.5 554.5 336 C 554.828125 336 555.160156 336 555.5 336 C 555.824219 336.863281 556.148438 337.730469 556.46875 338.59375 C 556.648438 339.074219 556.828125 339.558594 557.015625 340.054688 C 557.457031 341.367188 557.761719 342.632812 558 344 C 558.328125 344 558.660156 344 559 344 C 559.140625 344.347656 559.28125 344.691406 559.421875 345.046875 C 560.382812 347.390625 561.351562 349.714844 562.445312 352 C 562.683594 352.496094 562.683594 352.496094 562.925781 353.007812 C 563.242188 353.660156 563.558594 354.3125 563.882812 354.960938 C 564.691406 356.644531 565 357.585938 565 359.5 C 555.300781 358.695312 545.617188 357.773438 535.9375 356.75 C 528.941406 356.011719 521.941406 355.28125 514.9375 354.625 C 514.324219 354.566406 513.714844 354.507812 513.082031 354.449219 C 510.195312 354.183594 507.3125 353.949219 504.417969 353.757812 C 501.378906 353.546875 498.386719 353.191406 495.375 352.75 C 491.921875 352.25 488.476562 351.820312 485 351.5 C 485.210938 349.039062 486.277344 348.183594 488 346.5 C 488.363281 345.917969 488.707031 345.324219 489.03125 344.71875 C 489.917969 343.144531 490.722656 342.234375 492 341 C 492.351562 340.464844 492.703125 339.925781 493.0625 339.375 C 493.371094 338.921875 493.679688 338.46875 494 338 C 494.328125 338 494.660156 338 495 338 C 495.125 337.546875 495.246094 337.09375 495.375 336.625 C 496.027344 334.929688 496.71875 334.238281 498 333 C 498 332.503906 498 332.011719 498 331.5 C 497.671875 331.335938 497.339844 331.171875 497 331 C 497 330.671875 497 330.339844 497 330 C 496.574219 329.878906 496.152344 329.761719 495.714844 329.636719 C 493.808594 328.929688 492.234375 327.945312 490.5625 326.8125 C 488.617188 325.523438 486.707031 324.285156 484.59375 323.28125 C 483 322.5 483 322.5 482.5 321.5 C 481.328125 320.933594 481.328125 320.933594 479.96875 320.4375 C 479.507812 320.261719 479.050781 320.085938 478.578125 319.902344 C 478.222656 319.769531 477.867188 319.636719 477.5 319.5 C 477.5 319.171875 477.5 318.839844 477.5 318.5 C 477.078125 318.457031 476.65625 318.417969 476.21875 318.375 C 474.464844 317.992188 473.378906 317.417969 471.875 316.492188 C 470.640625 315.796875 469.351562 315.394531 468 315 C 468 314.671875 468 314.339844 468 314 C 467.589844 313.949219 467.183594 313.902344 466.761719 313.851562 C 464.652344 313.429688 462.796875 312.6875 460.8125 311.875 C 453.535156 308.976562 446.085938 306.914062 438.5 305 C 437.964844 304.863281 437.425781 304.722656 436.875 304.578125 C 416.105469 299.472656 393.183594 298.804688 372 301.5 C 371.4375 301.566406 370.871094 301.632812 370.292969 301.703125 C 362.230469 302.671875 354.367188 304.011719 346.5 306 C 345.949219 306.136719 345.398438 306.273438 344.832031 306.414062 C 336.105469 308.558594 336.105469 308.558594 327.59375 311.410156 C 325.726562 312.101562 323.839844 312.675781 321.9375 313.25 C 319.027344 314.132812 316.261719 315.191406 313.46875 316.40625 C 311.390625 317.246094 309.261719 317.855469 307.101562 318.453125 C 305.546875 318.984375 304.140625 319.65625 302.683594 320.40625 C 300.1875 321.65625 297.617188 322.75 295.0625 323.875 C 294.492188 324.128906 293.921875 324.382812 293.335938 324.640625 C 292.792969 324.882812 292.25 325.121094 291.691406 325.367188 C 291.199219 325.585938 290.707031 325.800781 290.199219 326.027344 C 289 326.5 289 326.5 288 326.5 C 288 326.828125 288 327.160156 288 327.5 C 287.042969 327.90625 286.082031 328.3125 285.125 328.71875 C 284.589844 328.945312 284.058594 329.171875 283.507812 329.40625 C 282.328125 329.871094 281.234375 330.238281 280 330.5 C 280 330.828125 280 331.160156 280 331.5 C 279.695312 331.609375 279.394531 331.71875 279.082031 331.832031 C 276.285156 332.890625 273.804688 334.15625 271.265625 335.734375 C 265.855469 339 265.855469 339 264 339 C 264 339.328125 264 339.660156 264 340 C 263.390625 340.316406 263.390625 340.316406 262.773438 340.640625 C 259.433594 342.410156 256.222656 344.257812 253.070312 346.359375 C 252 347 252 347 251 347 C 251 347.328125 251 347.660156 251 348 C 250.339844 348.164062 249.679688 348.328125 249 348.5 C 249 348.996094 249 349.488281 249 350 C 247.457031 350.882812 246.882812 351 245 351 C 245 351.328125 245 351.660156 245 352 C 244.160156 352.644531 244.160156 352.644531 243.0625 353.3125 C 242.703125 353.535156 242.34375 353.757812 241.972656 353.988281 C 241 354.5 241 354.5 240 354.5 C 240 354.828125 240 355.160156 240 355.5 C 237.292969 357.5 237.292969 357.5 236 357.5 C 236 357.171875 236 356.839844 236 356.5 C 238.738281 354 238.738281 354 240 354 C 240 353.671875 240 353.339844 240 353 C 242.738281 350.5 242.738281 350.5 244 350.5 C 244 350.171875 244 349.839844 244 349.5 C 246.738281 347 246.738281 347 248 347 C 248 346.671875 248 346.339844 248 346 C 250.707031 344 250.707031 344 252 344 C 252.109375 343.707031 252.214844 343.414062 252.328125 343.113281 C 253.226562 341.625 254.292969 341.070312 255.78125 340.1875 C 257.71875 339.15625 257.71875 339.15625 259 337.5 C 259.328125 337.5 259.660156 337.5 260 337.5 C 260 337.171875 260 336.839844 260 336.5 C 262.707031 334.5 262.707031 334.5 264 334.5 C 264 334.171875 264 333.839844 264 333.5 C 265.730469 332 265.730469 332 267 332 C 267 331.671875 267 331.339844 267 331 C 267.453125 330.875 267.90625 330.753906 268.375 330.625 C 270.09375 329.964844 270.761719 329.320312 272 328 C 272.828125 327.492188 273.664062 326.992188 274.5 326.5 C 275.007812 326.011719 275.511719 325.511719 276 325 C 277.5 324 277.5 324 279 324 C 279 323.671875 279 323.339844 279 323 C 279.867188 322.386719 279.867188 322.386719 281.09375 321.6875 C 282.644531 320.792969 284.183594 319.894531 285.691406 318.929688 C 285.976562 318.75 286.261719 318.570312 286.554688 318.386719 C 287.375 317.863281 288.191406 317.339844 289.007812 316.820312 C 290.398438 316.054688 291.441406 315.699219 293 315.5 C 293 315.171875 293 314.839844 293 314.5 C 293.328125 314.324219 293.65625 314.148438 293.992188 313.96875 C 297.070312 312.300781 300.09375 310.570312 303.085938 308.757812 C 304.5 308 304.5 308 306.148438 307.460938 C 307.570312 307.152344 307.570312 307.152344 308 306 C 308.9375 305.644531 309.875 305.289062 310.820312 304.953125 C 312.050781 304.480469 313.199219 303.917969 314.375 303.3125 C 321.835938 299.5 321.835938 299.5 324 299.5 C 324 299.171875 324 298.839844 324 298.5 C 327.753906 296.882812 331.542969 295.417969 335.398438 294.0625 C 336.6875 293.609375 337.972656 293.140625 339.25 292.65625 C 340.304688 292.261719 341.367188 291.878906 342.4375 291.53125 C 343.683594 291.109375 344.855469 290.636719 346.0625 290.125 C 350.261719 288.425781 354.652344 287.25 359 286 C 359.605469 285.824219 360.214844 285.648438 360.839844 285.46875 C 369.660156 283.023438 378.65625 280.980469 387.742188 279.851562 C 389.542969 279.625 391.335938 279.378906 393.132812 279.117188 C 400.976562 277.996094 408.707031 277.722656 416.625 277.75 Z M 416.625 277.75 "/>
<path style=" stroke:none;fill-rule:nonzero;fill:rgb(23.529412%,23.529412%,23.529412%);fill-opacity:1;" d="M 615 377 C 625.394531 377 635.789062 377 646.5 377 C 647.84375 380.230469 649.179688 383.449219 650.472656 386.695312 C 651.519531 389.289062 652.625 391.863281 653.71875 394.4375 C 655.097656 397.6875 656.476562 400.9375 657.832031 404.199219 C 658.691406 406.265625 659.570312 408.324219 660.46875 410.375 C 661.554688 412.894531 662.550781 415.425781 663.5 418 C 664.992188 422.054688 666.652344 426.019531 668.433594 429.957031 C 670.003906 433.445312 671.4375 436.988281 672.875 440.53125 C 673.128906 441.160156 673.386719 441.792969 673.640625 442.421875 C 674.261719 443.945312 674.882812 445.472656 675.5 447 C 677.742188 442.710938 679.648438 438.457031 681.296875 433.910156 C 682.269531 431.234375 683.390625 428.621094 684.5 426 C 684.710938 425.484375 684.921875 424.96875 685.140625 424.4375 C 686.914062 420.113281 686.914062 420.113281 687.96875 418.125 C 689.097656 415.933594 689.90625 413.625 690.75 411.316406 C 692.085938 407.707031 693.589844 404.175781 695.09375 400.640625 C 695.769531 399.046875 696.429688 397.453125 697.0625 395.84375 C 698.070312 393.296875 699.15625 390.785156 700.242188 388.265625 C 701.148438 386.15625 702.03125 384.03125 702.914062 381.90625 C 703.597656 380.265625 704.300781 378.632812 705 377 C 714.734375 377 724.46875 377 734.5 377 C 733.941406 380.351562 733.941406 380.351562 733 382.0625 C 732.285156 383.371094 731.8125 384.539062 731.5 386 C 731.171875 386 730.839844 386 730.5 386 C 730.453125 386.414062 730.40625 386.828125 730.355469 387.253906 C 729.9375 389.3125 729.1875 391.039062 728.3125 392.9375 C 727.382812 394.984375 726.472656 397.023438 725.695312 399.132812 C 725.199219 400.46875 724.707031 401.664062 724.03125 402.90625 C 722.992188 404.917969 722.253906 406.996094 721.5 409.125 C 720.585938 411.628906 719.566406 414.0625 718.1875 416.34375 C 717.386719 417.691406 716.992188 419.011719 716.5 420.5 C 716.03125 421.734375 715.554688 422.960938 715.0625 424.1875 C 714.929688 424.519531 714.796875 424.851562 714.660156 425.191406 C 713.96875 426.902344 713.25 428.578125 712.40625 430.21875 C 711.621094 431.757812 711.007812 433.246094 710.425781 434.863281 C 709.707031 436.777344 708.894531 438.652344 708.09375 440.535156 C 707.496094 442.007812 706.984375 443.488281 706.5 445 C 706.171875 445 705.839844 445 705.5 445 C 705.421875 445.292969 705.339844 445.582031 705.257812 445.882812 C 704.265625 449.378906 702.933594 452.664062 701.5 456 C 701.09375 456.980469 700.6875 457.957031 700.28125 458.9375 C 698.597656 462.972656 696.890625 466.996094 695.117188 470.992188 C 693.503906 474.648438 691.972656 478.3125 690.558594 482.050781 C 689.515625 484.761719 688.324219 487.382812 687 489.96875 C 686.246094 491.441406 685.640625 492.921875 685.0625 494.46875 C 684.214844 496.628906 683.148438 498.433594 681.8125 500.328125 C 680.925781 501.605469 680.125 502.921875 679.3125 504.25 C 674.289062 512.175781 666.132812 518.207031 657 520.5 C 656.507812 520.648438 656.019531 520.796875 655.515625 520.945312 C 643.996094 524.011719 631.863281 521.824219 621 517.5 C 621 517.171875 621 516.839844 621 516.5 C 620.585938 516.398438 620.175781 516.292969 619.75 516.1875 C 617.519531 515.3125 615.851562 513.996094 614 512.5 C 615.03125 510.035156 616.144531 507.636719 617.34375 505.25 C 617.515625 504.90625 617.6875 504.5625 617.863281 504.210938 C 619.25 501.460938 620.6875 498.734375 622.148438 496.023438 C 623.132812 494.199219 624.082031 492.359375 625 490.5 C 626 491 627 491.5 628 492 C 628 492.328125 628 492.660156 628 493 C 628.789062 493.199219 628.789062 493.199219 629.59375 493.40625 C 631.5 494 631.5 494 632.71875 494.75 C 635.691406 496.492188 638.660156 496.597656 642.03125 496.625 C 642.367188 496.628906 642.703125 496.632812 643.050781 496.640625 C 646.480469 496.617188 649.570312 495.78125 652.5 494 C 653.390625 493.039062 654.179688 492.023438 655 491 C 655.328125 491 655.660156 491 656 491 C 656.113281 490.679688 656.226562 490.359375 656.34375 490.03125 C 657.085938 488.300781 658.03125 486.773438 659.039062 485.1875 C 659.910156 482.941406 659.066406 481.0625 658.164062 478.949219 C 657.820312 478.195312 657.472656 477.441406 657.125 476.6875 C 656.757812 475.882812 656.394531 475.078125 656.027344 474.273438 C 655.851562 473.882812 655.671875 473.492188 655.488281 473.089844 C 654.859375 471.6875 654.269531 470.269531 653.6875 468.84375 C 652.855469 466.816406 651.964844 464.828125 651.03125 462.84375 C 649.648438 459.878906 648.421875 456.867188 647.21875 453.824219 C 645.226562 448.738281 645.226562 448.738281 642.875 443.8125 C 642.054688 442.230469 641.679688 440.789062 641.5 439 C 641.171875 439 640.839844 439 640.5 439 C 640.425781 438.707031 640.351562 438.417969 640.277344 438.117188 C 639.421875 434.992188 638.199219 432.273438 636.652344 429.429688 C 635.972656 427.9375 635.695312 426.625 635.5 425 C 635.171875 425 634.839844 425 634.5 425 C 633.949219 423.582031 633.394531 422.167969 632.84375 420.75 C 632.6875 420.355469 632.535156 419.957031 632.375 419.550781 C 631.914062 418.367188 631.457031 417.183594 631 416 C 630.851562 415.617188 630.703125 415.238281 630.550781 414.84375 C 629.5 412.113281 629.5 412.113281 629.5 411 C 629.171875 411 628.839844 411 628.5 411 C 628.34375 410.542969 628.183594 410.082031 628.023438 409.609375 C 626.648438 405.597656 626.648438 405.597656 624.875 401.75 C 624.050781 400.101562 623.683594 398.824219 623.5 397 C 623.171875 397 622.839844 397 622.5 397 C 622.292969 396.441406 622.085938 395.886719 621.875 395.3125 C 620.351562 391.058594 620.351562 391.058594 618.4375 386.976562 C 618 386 618 386 618 384 C 617.671875 384 617.339844 384 617 384 C 616.664062 383.210938 616.328125 382.417969 616 381.625 C 615.8125 381.183594 615.628906 380.742188 615.4375 380.289062 C 615 379 615 379 615 377 Z M 615 377 "/>
<path style=" stroke:none;fill-rule:nonzero;fill:rgb(23.529412%,23.529412%,23.529412%);fill-opacity:1;" d="M 520 377 C 550.03125 377 580.058594 377 611 377 C 611 383.269531 611 389.539062 611 396 C 609.75 397.25 608.5 398.5 607.21875 399.71875 C 605.933594 400.992188 605.933594 400.992188 604.90625 402.65625 C 604.605469 403.101562 604.308594 403.542969 604 404 C 603.671875 404 603.339844 404 603 404 C 602.886719 404.265625 602.773438 404.535156 602.65625 404.8125 C 601.785156 406.386719 600.644531 407.679688 599.46875 409.03125 C 598.972656 409.605469 598.480469 410.183594 597.984375 410.757812 C 597.734375 411.046875 597.488281 411.335938 597.234375 411.632812 C 595.742188 413.394531 594.316406 415.214844 592.890625 417.023438 C 592.59375 417.347656 592.300781 417.667969 592 418 C 591.671875 418 591.339844 418 591 418 C 590.96875 418.277344 590.9375 418.558594 590.90625 418.84375 C 590.332031 420.476562 589.234375 421.285156 588 422.5 C 587.019531 423.585938 586.070312 424.699219 585.125 425.8125 C 584.863281 426.121094 584.601562 426.425781 584.332031 426.742188 C 580.957031 430.710938 577.671875 434.753906 574.460938 438.855469 C 573.375 440.148438 572.191406 441.308594 571 442.5 C 568.863281 444.988281 566.816406 447.542969 564.875 450.1875 C 563.703125 451.773438 562.394531 453.105469 561 454.5 C 559.265625 456.726562 559.265625 456.726562 557.5 459 C 575.648438 459 593.800781 459 612.5 459 C 612.5 466.753906 612.5 474.511719 612.5 482.5 C 581.480469 482.5 550.460938 482.5 518.5 482.5 C 518.5 463.5 518.5 463.5 522 459 C 522.328125 459 522.660156 459 523 459 C 523.15625 458.691406 523.308594 458.382812 523.46875 458.0625 C 523.8125 457.375 524.15625 456.6875 524.5 456 C 524.828125 456 525.160156 456 525.5 456 C 525.609375 455.738281 525.71875 455.472656 525.828125 455.203125 C 526.75 453.546875 527.976562 452.195312 529.21875 450.78125 C 529.761719 450.15625 530.304688 449.527344 530.847656 448.902344 C 531.121094 448.585938 531.398438 448.269531 531.683594 447.941406 C 532.933594 446.5 534.171875 445.050781 535.40625 443.59375 C 535.632812 443.328125 535.859375 443.0625 536.09375 442.785156 C 537.746094 440.832031 539.3125 438.820312 540.828125 436.757812 C 541.050781 436.507812 541.273438 436.257812 541.5 436 C 541.828125 436 542.160156 436 542.5 436 C 542.664062 435.605469 542.664062 435.605469 542.828125 435.199219 C 543.75 433.554688 544.976562 432.214844 546.21875 430.8125 C 548.679688 428 551.015625 425.121094 553.261719 422.132812 C 553.816406 421.40625 554.40625 420.699219 555 420 C 555.328125 420 555.660156 420 556 420 C 556.125 419.722656 556.246094 419.445312 556.375 419.160156 C 558.492188 415.238281 562 411.921875 564.992188 408.652344 C 565.898438 407.617188 566.691406 406.570312 567.46875 405.4375 C 567.808594 404.964844 568.148438 404.488281 568.5 404 C 568.828125 404 569.160156 404 569.5 404 C 569.644531 403.691406 569.789062 403.382812 569.9375 403.0625 C 570.5 402 570.5 402 571.5 401 C 554.503906 400.835938 537.511719 400.671875 520 400.5 C 520 392.746094 520 384.988281 520 377 Z M 520 377 "/>
<path style=" stroke:none;fill-rule:nonzero;fill:rgb(23.137255%,23.137255%,23.137255%);fill-opacity:1;" d="M 340 337 C 350.066406 337 360.128906 337 370.5 337 C 370.5 385.015625 370.5 433.03125 370.5 482.5 C 360.433594 482.5 350.371094 482.5 340 482.5 C 340 434.484375 340 386.46875 340 337 Z M 340 337 "/>
<path style=" stroke:none;fill-rule:nonzero;fill:rgb(99.215686%,99.215686%,99.215686%);fill-opacity:1;" d="M 460 402.5 C 460.390625 402.664062 460.78125 402.828125 461.1875 402.996094 C 468.550781 406.59375 472.304688 412.671875 475.09375 420.070312 C 477.019531 429.183594 476.074219 439.550781 471.148438 447.5625 C 467.390625 453.003906 461.789062 456.917969 455.289062 458.296875 C 452.957031 458.664062 450.636719 458.664062 448.28125 458.65625 C 447.550781 458.667969 447.550781 458.667969 446.808594 458.679688 C 441.40625 458.683594 437.257812 457.316406 433 454 C 432.363281 453.503906 432.363281 453.503906 431.710938 453 C 428.558594 450.363281 426.75 447.691406 425 444 C 424.804688 443.65625 424.609375 443.308594 424.410156 442.953125 C 420.769531 436.457031 421.085938 427.042969 422.78125 419.96875 C 424.472656 414.480469 427.480469 409.5 431.96875 405.875 C 432.386719 405.53125 432.804688 405.1875 433.234375 404.835938 C 434.535156 403.976562 435.464844 403.6875 437 403.5 C 437 403.171875 437 402.839844 437 402.5 C 444.574219 399.730469 452.464844 399.296875 460 402.5 Z M 460 402.5 "/>
<path style=" stroke:none;fill-rule:nonzero;fill:rgb(99.215686%,99.215686%,99.215686%);fill-opacity:1;" d="M 103 424.5 C 113.476562 424.398438 113.476562 424.398438 118 424.378906 C 121.066406 424.363281 124.132812 424.34375 127.199219 424.3125 C 129.675781 424.285156 132.152344 424.269531 134.628906 424.261719 C 135.566406 424.257812 136.503906 424.25 137.441406 424.234375 C 146.023438 424.117188 154.96875 424.832031 161.507812 430.9375 C 164.621094 434.167969 165.035156 437.121094 165.15625 441.46875 C 165.066406 446.042969 164.222656 449.203125 161.046875 452.570312 C 153.625 459.148438 143.566406 458.65625 134.25 458.597656 C 133.34375 458.597656 132.433594 458.59375 131.527344 458.59375 C 129.164062 458.589844 126.804688 458.578125 124.445312 458.570312 C 121.597656 458.554688 118.75 458.550781 115.902344 458.546875 C 111.601562 458.535156 107.300781 458.515625 103 458.5 C 103 447.28125 103 436.058594 103 424.5 Z M 103 424.5 "/>
<path style=" stroke:none;fill-rule:nonzero;fill:rgb(98.823529%,98.823529%,98.823529%);fill-opacity:1;" d="M 103 369 C 111.914062 368.917969 111.914062 368.917969 115.761719 368.902344 C 118.371094 368.890625 120.980469 368.875 123.589844 368.847656 C 125.695312 368.828125 127.804688 368.816406 129.910156 368.808594 C 130.707031 368.804688 131.503906 368.800781 132.300781 368.789062 C 140.421875 368.683594 149.101562 369.660156 155.25 375.5 C 157.976562 378.269531 158.191406 380.898438 158.1875 384.625 C 158.1875 385.046875 158.1875 385.472656 158.1875 385.90625 C 158.136719 389.042969 157.640625 391.28125 156 394 C 155.671875 394 155.339844 394 155 394 C 154.90625 394.277344 154.8125 394.558594 154.71875 394.84375 C 152.496094 398.417969 147.835938 399.847656 144 401 C 141.359375 401.394531 138.824219 401.5625 136.148438 401.558594 C 135.605469 401.558594 135.605469 401.558594 135.054688 401.558594 C 133.875 401.554688 132.695312 401.554688 131.515625 401.546875 C 130.691406 401.546875 129.867188 401.546875 129.042969 401.546875 C 126.886719 401.542969 124.730469 401.539062 122.574219 401.535156 C 119.980469 401.527344 117.386719 401.527344 114.792969 401.523438 C 110.859375 401.519531 106.929688 401.507812 103 401.5 C 103 390.773438 103 380.050781 103 369 Z M 103 369 "/>
<path style=" stroke:none;fill-rule:nonzero;fill:rgb(99.215686%,99.215686%,99.215686%);fill-opacity:1;" d="M 260.210938 438.304688 C 261.128906 438.308594 261.128906 438.308594 262.070312 438.3125 C 264.003906 438.324219 265.9375 438.347656 267.875 438.375 C 269.195312 438.386719 270.519531 438.394531 271.839844 438.402344 C 275.058594 438.425781 278.28125 438.457031 281.5 438.5 C 281.550781 440.425781 281.582031 442.351562 281.609375 444.28125 C 281.621094 444.820312 281.636719 445.363281 281.652344 445.925781 C 281.691406 449.894531 281.261719 452.253906 278.675781 455.359375 C 275.738281 458.207031 272.34375 461.5 268 461.5 C 268 461.828125 268 462.160156 268 462.5 C 261.492188 463.429688 252.964844 464.453125 247.242188 460.667969 C 244.238281 458.234375 242.351562 455.621094 241.832031 451.742188 C 241.703125 448.464844 242.171875 445.625 244.28125 443.046875 C 248.675781 438.742188 254.335938 438.199219 260.210938 438.304688 Z M 260.210938 438.304688 "/>
<path style=" stroke:none;fill-rule:nonzero;fill:rgb(93.333334%,72.156864%,14.509805%);fill-opacity:1;" d="M 269 330.5 C 269 331.160156 269 331.820312 269 332.5 C 268.175781 332.5 267.351562 332.5 266.5 332.5 C 266.4375 332.800781 266.375 333.097656 266.3125 333.40625 C 266 334.5 266 334.5 265 336 C 265 336.328125 265 336.660156 265 337 C 264.671875 337 264.339844 337 264 337 C 264 337.328125 264 337.660156 264 338 C 264.371094 337.753906 264.742188 337.503906 265.125 337.25 C 266.5 336.5 266.5 336.5 268.5 336.5 C 268.253906 335.015625 268.253906 335.015625 268 333.5 C 268.824219 333.171875 269.648438 332.839844 270.5 332.5 C 270.746094 332.996094 270.746094 332.996094 271 333.5 C 272.964844 333.210938 272.964844 333.210938 274.5 332 C 276.394531 331.054688 277.894531 330.902344 280 331 C 279 332 279 332 277.25 332.625 C 275.085938 333.398438 273.25 334.511719 271.300781 335.71875 C 265.835938 339 265.835938 339 264 339 C 264 339.328125 264 339.660156 264 340 C 263.59375 340.210938 263.1875 340.425781 262.773438 340.640625 C 259.433594 342.410156 256.222656 344.257812 253.070312 346.359375 C 252 347 252 347 251 347 C 251 347.328125 251 347.660156 251 348 C 250.011719 348.246094 250.011719 348.246094 249 348.5 C 249 348.996094 249 349.488281 249 350 C 247.457031 350.882812 246.882812 351 245 351 C 245 351.328125 245 351.660156 245 352 C 244.160156 352.644531 244.160156 352.644531 243.0625 353.3125 C 242.703125 353.535156 242.34375 353.757812 241.972656 353.988281 C 241 354.5 241 354.5 240 354.5 C 240 354.828125 240 355.160156 240 355.5 C 237.292969 357.5 237.292969 357.5 236 357.5 C 236 357.171875 236 356.839844 236 356.5 C 238.738281 354 238.738281 354 240 354 C 240 353.671875 240 353.339844 240 353 C 242.738281 350.5 242.738281 350.5 244 350.5 C 244 350.171875 244 349.839844 244 349.5 C 246.738281 347 246.738281 347 248 347 C 248 346.671875 248 346.339844 248 346 C 250.707031 344 250.707031 344 252 344 C 252.109375 343.707031 252.214844 343.414062 252.328125 343.113281 C 253.226562 341.625 254.292969 341.070312 255.78125 340.1875 C 257.71875 339.15625 257.71875 339.15625 259 337.5 C 259.328125 337.5 259.660156 337.5 260 337.5 C 260 337.171875 260 336.839844 260 336.5 C 262.707031 334.5 262.707031 334.5 264 334.5 C 264 334.171875 264 333.839844 264 333.5 C 265.730469 332 265.730469 332 267 332 C 267 331.671875 267 331.339844 267 331 C 268 330.5 268 330.5 269 330.5 Z M 269 330.5 "/>
<path style=" stroke:none;fill-rule:nonzero;fill:rgb(99.215686%,94.509804%,74.509805%);fill-opacity:1;" d="M 419.375 276.84375 C 419.929688 276.84375 420.480469 276.839844 421.050781 276.839844 C 431.585938 276.820312 431.585938 276.820312 436.671875 277.765625 C 438.722656 278.128906 440.769531 278.207031 442.84375 278.28125 C 446.875 278.4375 446.875 278.4375 448 279 C 448 279.328125 448 279.660156 448 280 C 445.320312 279.792969 442.640625 279.585938 439.972656 279.257812 C 433.082031 278.433594 426.234375 278.332031 419.300781 278.34375 C 417.386719 278.34375 415.46875 278.332031 413.554688 278.320312 C 405.757812 278.300781 398.203125 278.792969 390.5 280 C 390.132812 280.058594 389.765625 280.113281 389.390625 280.171875 C 388.023438 280.386719 386.65625 280.609375 385.289062 280.828125 C 383.507812 281.066406 381.796875 281.070312 380 281 C 382.261719 279.492188 383.929688 279.441406 386.625 279.46875 C 387.164062 279.472656 387.703125 279.476562 388.257812 279.484375 C 388.667969 279.488281 389.078125 279.492188 389.5 279.5 C 389.5 279.171875 389.5 278.839844 389.5 278.5 C 399.460938 277.265625 409.339844 276.84375 419.375 276.84375 Z M 419.375 276.84375 "/>
<path style=" stroke:none;fill-rule:nonzero;fill:rgb(92.156863%,74.117649%,25.098041%);fill-opacity:1;" d="M 405.207031 277.910156 C 405.738281 277.90625 406.273438 277.898438 406.820312 277.890625 C 407.683594 277.886719 407.683594 277.886719 408.5625 277.878906 C 409.46875 277.875 409.46875 277.875 410.394531 277.867188 C 412.355469 277.855469 414.320312 277.847656 416.28125 277.84375 C 416.613281 277.84375 416.945312 277.839844 417.285156 277.839844 C 428.296875 277.808594 439.105469 278.3125 450 280 C 450 280.164062 450 280.328125 450 280.5 C 448.699219 280.511719 447.394531 280.523438 446.09375 280.53125 C 445.726562 280.535156 445.355469 280.539062 444.976562 280.542969 C 443.351562 280.550781 442.054688 280.519531 440.5 280 C 439.433594 279.925781 438.363281 279.875 437.289062 279.839844 C 436.664062 279.820312 436.039062 279.800781 435.390625 279.777344 C 434.410156 279.75 434.410156 279.75 433.40625 279.71875 C 432.738281 279.695312 432.070312 279.675781 431.402344 279.652344 C 429.769531 279.601562 428.132812 279.550781 426.5 279.5 C 426.5 279.171875 426.5 278.839844 426.5 278.5 C 423.910156 278.558594 421.320312 278.621094 418.734375 278.6875 C 417.851562 278.707031 416.972656 278.730469 416.09375 278.75 C 414.824219 278.777344 413.558594 278.808594 412.289062 278.839844 C 411.703125 278.855469 411.703125 278.855469 411.105469 278.867188 C 409.175781 278.917969 407.378906 279.078125 405.5 279.5 C 404.816406 279.5625 404.132812 279.609375 403.449219 279.640625 C 403.082031 279.660156 402.710938 279.679688 402.332031 279.695312 C 401.566406 279.734375 400.796875 279.769531 400.03125 279.800781 C 398.417969 279.886719 397.039062 279.988281 395.5 280.5 C 394.796875 280.539062 394.089844 280.554688 393.382812 280.546875 C 392.984375 280.546875 392.582031 280.546875 392.167969 280.542969 C 391.753906 280.539062 391.335938 280.535156 390.90625 280.53125 C 390.484375 280.527344 390.0625 280.527344 389.625 280.523438 C 388.582031 280.519531 387.542969 280.507812 386.5 280.5 C 386.5 280.335938 386.5 280.171875 386.5 280 C 386.894531 279.957031 387.292969 279.914062 387.699219 279.871094 C 389.496094 279.675781 391.296875 279.476562 393.09375 279.28125 C 393.714844 279.214844 394.339844 279.148438 394.980469 279.078125 C 395.582031 279.011719 396.183594 278.945312 396.800781 278.875 C 397.355469 278.816406 397.90625 278.757812 398.476562 278.695312 C 399.949219 278.527344 399.949219 278.527344 401.175781 278.242188 C 402.546875 277.992188 403.8125 277.925781 405.207031 277.910156 Z M 405.207031 277.910156 "/>
<path style=" stroke:none;fill-rule:nonzero;fill:rgb(99.607843%,95.686275%,77.64706%);fill-opacity:1;" d="M 394.417969 299.933594 C 395.996094 299.9375 397.578125 299.933594 399.15625 299.929688 C 404.792969 299.929688 410.382812 300.046875 416 300.5 C 416 300.664062 416 300.828125 416 301 C 415.644531 300.996094 415.285156 300.996094 414.917969 300.992188 C 411.5 300.972656 408.082031 300.957031 404.664062 300.949219 C 402.910156 300.941406 401.152344 300.9375 399.398438 300.925781 C 385.761719 300.3125 385.761719 300.3125 372.5 302.5 C 371.3125 302.589844 370.125 302.660156 368.9375 302.71875 C 366.394531 302.859375 364.003906 303.160156 361.539062 303.792969 C 359.691406 304.160156 357.875 304.058594 356 304 C 357.78125 302.8125 359.34375 302.640625 361.414062 302.371094 C 361.800781 302.320312 362.191406 302.265625 362.59375 302.210938 C 363.421875 302.101562 364.25 301.992188 365.078125 301.882812 C 366.316406 301.722656 367.554688 301.554688 368.792969 301.382812 C 377.347656 300.230469 385.796875 299.917969 394.417969 299.933594 Z M 394.417969 299.933594 "/>
<path style=" stroke:none;fill-rule:nonzero;fill:rgb(93.333334%,75.686276%,27.843139%);fill-opacity:1;" d="M 253 342 C 253.328125 342.164062 253.660156 342.328125 254 342.5 C 252.1875 344.9375 252.1875 344.9375 250.5 345.5 C 250.335938 345.828125 250.171875 346.160156 250 346.5 C 250.660156 346.664062 251.320312 346.828125 252 347 C 251.671875 347 251.339844 347 251 347 C 251 347.328125 251 347.660156 251 348 C 250.339844 348.164062 249.679688 348.328125 249 348.5 C 249 348.996094 249 349.488281 249 350 C 247.457031 350.882812 246.882812 351 245 351 C 245 351.328125 245 351.660156 245 352 C 244.160156 352.644531 244.160156 352.644531 243.0625 353.3125 C 242.703125 353.535156 242.34375 353.757812 241.972656 353.988281 C 241 354.5 241 354.5 240 354.5 C 240 354.828125 240 355.160156 240 355.5 C 237.292969 357.5 237.292969 357.5 236 357.5 C 236 357.171875 236 356.839844 236 356.5 C 238.738281 354 238.738281 354 240 354 C 240 353.671875 240 353.339844 240 353 C 242.738281 350.5 242.738281 350.5 244 350.5 C 244 350.171875 244 349.839844 244 349.5 C 246.738281 347 246.738281 347 248 347 C 248 346.671875 248 346.339844 248 346 C 250.707031 344 250.707031 344 252 344 C 252.328125 343.339844 252.660156 342.679688 253 342 Z M 253 342 "/>
<path style=" stroke:none;fill-rule:nonzero;fill:rgb(100%,99.607843%,90.588236%);fill-opacity:1;" d="M 406 277 C 409.511719 276.972656 413.023438 276.957031 416.539062 276.945312 C 417.730469 276.941406 418.921875 276.933594 420.113281 276.925781 C 421.839844 276.914062 423.5625 276.90625 425.289062 276.902344 C 425.8125 276.898438 426.335938 276.890625 426.875 276.886719 C 430.171875 276.886719 433.296875 277.203125 436.546875 277.765625 C 438.640625 278.101562 440.726562 278.207031 442.84375 278.28125 C 446.875 278.4375 446.875 278.4375 448 279 C 448 279.328125 448 279.660156 448 280 C 445.03125 279.777344 442.078125 279.527344 439.125 279.140625 C 428.113281 277.738281 417.089844 277.636719 406 277.5 C 406 277.335938 406 277.171875 406 277 Z M 406 277 "/>
<path style=" stroke:none;fill-rule:nonzero;fill:rgb(93.333334%,73.333335%,20.392157%);fill-opacity:1;" d="M 336 294.5 C 335.679688 294.550781 335.359375 294.601562 335.03125 294.65625 C 334.691406 294.769531 334.351562 294.882812 334 295 C 333.835938 295.496094 333.671875 295.988281 333.5 296.5 C 332.191406 297.121094 330.871094 297.542969 329.5 298 C 329.664062 298.496094 329.828125 298.988281 330 299.5 C 329.484375 299.570312 328.96875 299.644531 328.4375 299.71875 C 327.796875 299.8125 327.160156 299.90625 326.5 300 C 325.679688 300.109375 325.679688 300.109375 324.84375 300.21875 C 323.429688 300.386719 323.429688 300.386719 322.5 301.5 C 321.488281 301.945312 321.488281 301.945312 320.3125 302.34375 C 319.925781 302.480469 319.542969 302.617188 319.144531 302.757812 C 317.898438 303.019531 317.191406 302.90625 316 302.5 C 318.566406 301.082031 321.191406 300.28125 324 299.5 C 324 299.171875 324 298.839844 324 298.5 C 325.445312 297.894531 326.890625 297.292969 328.335938 296.691406 C 329.382812 296.253906 330.433594 295.816406 331.476562 295.371094 C 331.917969 295.1875 332.359375 295.003906 332.8125 294.8125 C 333.210938 294.644531 333.609375 294.476562 334.019531 294.300781 C 335 294 335 294 336 294.5 Z M 336 294.5 "/>
<path style=" stroke:none;fill-rule:nonzero;fill:rgb(94.117647%,72.941178%,16.078432%);fill-opacity:1;" d="M 532 287.5 C 533.5 288 533.5 288 534.085938 288.890625 C 534.253906 289.246094 534.421875 289.601562 534.59375 289.96875 C 534.765625 290.324219 534.9375 290.679688 535.117188 291.046875 C 535.5 292 535.5 292 535.5 293 C 534.839844 292.671875 534.179688 292.339844 533.5 292 C 533.5 291.671875 533.5 291.339844 533.5 291 C 533.171875 291 532.839844 291 532.5 291 C 532.625 291.453125 532.746094 291.90625 532.875 292.375 C 533 294 533 294 532.03125 295.1875 C 531.691406 295.457031 531.351562 295.722656 531 296 C 530.671875 295.835938 530.339844 295.671875 530 295.5 C 530.164062 294.34375 530.328125 293.191406 530.5 292 C 529.511719 292.496094 529.511719 292.496094 528.5 293 C 528.5 293.328125 528.5 293.660156 528.5 294 C 528.171875 294 527.839844 294 527.5 294 C 528.183594 292.007812 529.074219 290.558594 530.5 289 C 530.828125 289 531.160156 289 531.5 289 C 531.664062 288.503906 531.828125 288.011719 532 287.5 Z M 532 287.5 "/>
<path style=" stroke:none;fill-rule:nonzero;fill:rgb(91.764706%,74.509805%,27.450982%);fill-opacity:1;" d="M 524 355 C 528.570312 354.882812 533.042969 355.027344 537.59375 355.46875 C 538.042969 355.511719 538.488281 355.554688 538.953125 355.601562 C 542.164062 355.929688 542.164062 355.929688 543.726562 356.257812 C 545.046875 356.507812 546.304688 356.601562 547.648438 356.65625 C 548.136719 356.679688 548.625 356.699219 549.128906 356.722656 C 549.886719 356.75 549.886719 356.75 550.65625 356.78125 C 551.425781 356.8125 551.425781 356.8125 552.210938 356.847656 C 553.472656 356.898438 554.738281 356.949219 556 357 C 556 357.164062 556 357.328125 556 357.5 C 549.054688 358.304688 542.414062 357.574219 535.5 356.78125 C 534.378906 356.65625 533.261719 356.535156 532.140625 356.414062 C 529.425781 356.117188 526.710938 355.8125 524 355.5 C 524 355.335938 524 355.171875 524 355 Z M 524 355 "/>
<path style=" stroke:none;fill-rule:nonzero;fill:rgb(99.607843%,96.862745%,80.392158%);fill-opacity:1;" d="M 544.5 312 C 544.828125 312 545.160156 312 545.5 312 C 545.671875 312.449219 545.839844 312.898438 546.015625 313.359375 C 547.539062 317.304688 549.21875 321.09375 551.230469 324.816406 C 552.175781 326.621094 552.726562 327.949219 552.5 330 C 553.242188 330.246094 553.242188 330.246094 554 330.5 C 555.007812 332.355469 555.097656 333.914062 555 336 C 552.585938 332.378906 550.835938 328.269531 550 324 C 549.671875 324 549.339844 324 549 324 C 548.867188 323.578125 548.734375 323.15625 548.59375 322.722656 C 547.757812 320.292969 546.703125 317.972656 545.671875 315.621094 C 545.164062 314.394531 544.761719 313.292969 544.5 312 Z M 544.5 312 "/>
<path style=" stroke:none;fill-rule:nonzero;fill:rgb(91.37255%,72.549021%,21.568628%);fill-opacity:1;" d="M 441 305 C 444.011719 304.820312 445.796875 305.066406 448.5 306.5 C 449.308594 306.6875 450.121094 306.851562 450.9375 307 C 452.921875 307.355469 454.6875 307.886719 456.554688 308.632812 C 458.007812 309.195312 459.496094 309.59375 461 310 C 461 310.328125 461 310.660156 461 311 C 461.988281 311.164062 462.980469 311.328125 464 311.5 C 464 311.828125 464 312.160156 464 312.5 C 461.371094 311.886719 458.949219 311.132812 456.4375 310.125 C 451.417969 308.164062 446.214844 306.84375 441 305.5 C 441 305.335938 441 305.171875 441 305 Z M 441 305 "/>
<path style=" stroke:none;fill-rule:nonzero;fill:rgb(99.607843%,95.294118%,78.039217%);fill-opacity:1;" d="M 470 315.5 C 472.5 316.5 475 317.5 477.5 318.5 C 477.5 318.828125 477.5 319.160156 477.5 319.5 C 477.855469 319.589844 478.210938 319.683594 478.578125 319.773438 C 479.035156 319.902344 479.496094 320.027344 479.96875 320.15625 C 480.425781 320.277344 480.886719 320.398438 481.359375 320.523438 C 481.734375 320.683594 482.113281 320.839844 482.5 321 C 482.664062 321.496094 482.828125 321.988281 483 322.5 C 483.992188 322.851562 484.996094 323.179688 486 323.5 C 487.171875 324.164062 488.304688 324.835938 489.4375 325.5625 C 489.734375 325.75 490.03125 325.933594 490.335938 326.125 C 491.058594 326.582031 491.78125 327.039062 492.5 327.5 C 492.003906 327.746094 492.003906 327.746094 491.5 328 C 490.367188 327.429688 489.300781 326.839844 488.21875 326.1875 C 487.582031 325.8125 486.945312 325.441406 486.3125 325.070312 C 486 324.886719 485.691406 324.703125 485.371094 324.511719 C 482.636719 322.902344 479.851562 321.390625 477 320 C 477 319.671875 477 319.339844 477 319 C 476.585938 318.957031 476.175781 318.917969 475.75 318.875 C 473.617188 318.417969 471.902344 317.539062 470 316.5 C 470 316.171875 470 315.839844 470 315.5 Z M 470 315.5 "/>
<path style=" stroke:none;fill-rule:nonzero;fill:rgb(94.901961%,73.333335%,16.078432%);fill-opacity:1;" d="M 277 325 C 277 325.328125 277 325.660156 277 326 C 276.503906 326.246094 276.503906 326.246094 276 326.5 C 275.640625 327.320312 275.304688 328.15625 275 329 C 275.328125 329 275.660156 329 276 329 C 275.828125 330.289062 275.699219 330.84375 274.65625 331.65625 C 273.140625 332.105469 272.027344 331.847656 270.5 331.5 C 270.996094 331.335938 271.488281 331.171875 272 331 C 272 330.671875 272 330.339844 272 330 C 271.503906 329.671875 271.011719 329.339844 270.5 329 C 270.90625 328.753906 270.90625 328.753906 271.320312 328.507812 C 271.859375 328.179688 271.859375 328.179688 272.40625 327.84375 C 272.761719 327.628906 273.113281 327.414062 273.476562 327.195312 C 274.515625 326.539062 274.515625 326.539062 275.320312 325.664062 C 276 325 276 325 277 325 Z M 277 325 "/>
<path style=" stroke:none;fill-rule:nonzero;fill:rgb(91.37255%,76.078433%,35.686275%);fill-opacity:1;" d="M 246.5 349.5 C 246.335938 349.996094 246.171875 350.488281 246 351 C 245.671875 351 245.339844 351 245 351 C 245 351.328125 245 351.660156 245 352 C 244.160156 352.644531 244.160156 352.644531 243.0625 353.3125 C 242.703125 353.535156 242.34375 353.757812 241.972656 353.988281 C 241 354.5 241 354.5 240 354.5 C 240 354.828125 240 355.160156 240 355.5 C 237.292969 357.5 237.292969 357.5 236 357.5 C 236 357.171875 236 356.839844 236 356.5 C 238.738281 354 238.738281 354 240 354 C 240 353.671875 240 353.339844 240 353 C 240.820312 352.265625 240.820312 352.265625 241.90625 351.46875 C 242.261719 351.207031 242.613281 350.941406 242.976562 350.671875 C 244.148438 349.902344 245.089844 349.5 246.5 349.5 Z M 246.5 349.5 "/>
<path style=" stroke:none;fill-rule:nonzero;fill:rgb(90.980393%,73.333335%,24.705882%);fill-opacity:1;" d="M 295.53125 322.46875 C 296.257812 322.484375 296.257812 322.484375 297 322.5 C 295.691406 323.808594 294.179688 324.359375 292.5 325.0625 C 292.179688 325.199219 291.859375 325.339844 291.527344 325.484375 C 289.132812 326.5 289.132812 326.5 288 326.5 C 288 326.828125 288 327.160156 288 327.5 C 287.042969 327.90625 286.082031 328.3125 285.125 328.71875 C 284.589844 328.945312 284.058594 329.171875 283.507812 329.40625 C 282.328125 329.871094 281.234375 330.238281 280 330.5 C 280.90625 329.5 280.90625 329.5 282 328.5 C 282.496094 328.5 282.988281 328.5 283.5 328.5 C 283.5 328.171875 283.5 327.839844 283.5 327.5 C 284.324219 327.5 285.148438 327.5 286 327.5 C 286 327.003906 286 326.511719 286 326 C 286.496094 325.875 286.988281 325.753906 287.5 325.625 C 290.203125 324.859375 292.886719 322.523438 295.53125 322.46875 Z M 295.53125 322.46875 "/>
<path style=" stroke:none;fill-rule:nonzero;fill:rgb(99.215686%,94.509804%,74.117649%);fill-opacity:1;" d="M 484.5 288.5 C 488.261719 288.941406 491.398438 289.75 494.796875 291.417969 C 496.164062 292.078125 497.558594 292.53125 499 293 C 500.007812 293.484375 501.007812 293.980469 502 294.5 C 502 294.828125 502 295.160156 502 295.5 C 501.535156 295.300781 501.535156 295.300781 501.0625 295.09375 C 499.761719 294.597656 498.496094 294.214844 497.15625 293.84375 C 495.300781 293.304688 493.675781 292.621094 491.96875 291.71875 C 489.949219 290.652344 488.105469 290.089844 485.859375 289.726562 C 485.433594 289.617188 485.433594 289.617188 485 289.5 C 484.835938 289.171875 484.671875 288.839844 484.5 288.5 Z M 484.5 288.5 "/>
<path style=" stroke:none;fill-rule:nonzero;fill:rgb(92.156863%,76.47059%,31.764707%);fill-opacity:1;" d="M 322.5 313 C 321.882812 313.195312 321.261719 313.390625 320.625 313.59375 C 317.683594 314.570312 314.855469 315.796875 312 317 C 308.238281 318.578125 308.238281 318.578125 306.5 318 C 306.828125 318 307.160156 318 307.5 318 C 307.5 317.671875 307.5 317.339844 307.5 317 C 308.089844 316.796875 308.679688 316.589844 309.289062 316.378906 C 310.066406 316.105469 310.847656 315.835938 311.625 315.5625 C 312.011719 315.429688 312.402344 315.292969 312.804688 315.15625 C 313.179688 315.023438 313.558594 314.890625 313.945312 314.753906 C 314.289062 314.632812 314.636719 314.511719 314.992188 314.390625 C 316.019531 314.015625 316.019531 314.015625 317.015625 313.472656 C 318.730469 312.648438 320.757812 312.128906 322.5 313 Z M 322.5 313 "/>
<path style=" stroke:none;fill-rule:nonzero;fill:rgb(99.215686%,94.117647%,74.117649%);fill-opacity:1;" d="M 324 299 C 322.785156 300.214844 321.6875 300.585938 320.09375 301.21875 C 318.105469 302.007812 316.316406 302.871094 314.5 304 C 312.703125 304.78125 310.863281 305.394531 309 306 C 309 305.503906 309 305.011719 309 304.5 C 309.355469 304.402344 309.710938 304.304688 310.078125 304.207031 C 310.535156 304.078125 310.996094 303.945312 311.46875 303.8125 C 311.925781 303.683594 312.386719 303.558594 312.859375 303.425781 C 314.082031 303.117188 314.082031 303.117188 314.5 302 C 316.40625 300.875 317.777344 300.304688 320 300.5 C 320 300.171875 320 299.839844 320 299.5 C 321.464844 299.011719 322.476562 298.957031 324 299 Z M 324 299 "/>
<path style=" stroke:none;fill-rule:nonzero;fill:rgb(99.215686%,96.078432%,77.254903%);fill-opacity:1;" d="M 377.5625 280.96875 C 378.015625 280.972656 378.472656 280.976562 378.941406 280.984375 C 379.464844 280.992188 379.464844 280.992188 380 281 C 378.484375 282.011719 377.570312 282.28125 375.816406 282.644531 C 375.292969 282.753906 374.765625 282.863281 374.226562 282.976562 C 373.675781 283.085938 373.128906 283.199219 372.5625 283.3125 C 372.019531 283.425781 371.472656 283.542969 370.914062 283.660156 C 368.566406 284.140625 366.402344 284.570312 364 284.5 C 365.78125 282.828125 367.734375 282.554688 370.0625 282.1875 C 377.402344 280.964844 377.402344 280.964844 377.5625 280.96875 Z M 377.5625 280.96875 "/>
<path style=" stroke:none;fill-rule:nonzero;fill:rgb(92.54902%,74.509805%,26.666668%);fill-opacity:1;" d="M 293 315.5 C 293 315.828125 293 316.160156 293 316.5 C 292.339844 316.664062 291.679688 316.828125 291 317 C 291 317.328125 291 317.660156 291 318 C 290.503906 318.246094 290.503906 318.246094 290 318.5 C 289.835938 318.996094 289.671875 319.488281 289.5 320 C 288.984375 320.070312 288.46875 320.144531 287.9375 320.21875 C 286.289062 320.457031 284.644531 320.71875 283 321 C 284.542969 319.808594 286.140625 318.738281 287.78125 317.6875 C 288.257812 317.382812 288.730469 317.078125 289.21875 316.761719 C 290.503906 315.996094 291.488281 315.5 293 315.5 Z M 293 315.5 "/>
<path style=" stroke:none;fill-rule:nonzero;fill:rgb(94.117647%,73.333335%,18.039216%);fill-opacity:1;" d="M 373 284 C 372.3125 285 372.3125 285 371 286 C 369.820312 286.136719 368.695312 286.089844 367.507812 286.039062 C 364.664062 285.96875 361.832031 286.273438 359 286.5 C 360.160156 285.339844 360.59375 285.304688 362.179688 285.074219 C 362.832031 284.976562 362.832031 284.976562 363.496094 284.878906 C 363.949219 284.816406 364.40625 284.753906 364.875 284.6875 C 365.324219 284.621094 365.769531 284.554688 366.230469 284.484375 C 368.503906 284.15625 370.695312 283.917969 373 284 Z M 373 284 "/>
<path style=" stroke:none;fill-rule:nonzero;fill:rgb(92.54902%,74.901962%,29.411766%);fill-opacity:1;" d="M 315 303 C 315.328125 303.164062 315.660156 303.328125 316 303.5 C 315.835938 303.828125 315.671875 304.160156 315.5 304.5 C 314.667969 304.667969 313.832031 304.832031 313 305 C 312.835938 305.328125 312.671875 305.660156 312.5 306 C 311.554688 306.4375 310.59375 306.839844 309.625 307.21875 C 308.03125 307.84375 306.613281 308.425781 305.179688 309.359375 C 304 310 304 310 302.84375 309.84375 C 302.566406 309.730469 302.285156 309.617188 302 309.5 C 302.636719 309.175781 303.269531 308.851562 303.90625 308.53125 C 304.261719 308.351562 304.613281 308.171875 304.976562 307.984375 C 306 307.5 306 307.5 307.5 307 C 307.664062 306.671875 307.828125 306.339844 308 306 C 308.972656 305.621094 309.945312 305.246094 310.929688 304.898438 C 312.128906 304.476562 312.128906 304.476562 313.6875 303.625 C 314.335938 303.316406 314.335938 303.316406 315 303 Z M 315 303 "/>
<path style=" stroke:none;fill-rule:nonzero;fill:rgb(23.921569%,23.921569%,23.921569%);fill-opacity:1;" d="M 545 432 C 546 433.5 546 433.5 546 434.5 C 545.503906 434.5 545.011719 434.5 544.5 434.5 C 544.335938 434.828125 544.171875 435.160156 544 435.5 C 543.835938 435.828125 543.671875 436.160156 543.5 436.5 C 543.5 436.996094 543.5 437.488281 543.5 438 C 543.171875 438 542.839844 438 542.5 438 C 542.335938 438.496094 542.171875 438.988281 542 439.5 C 541.503906 439.5 541.011719 439.5 540.5 439.5 C 540.003906 439.664062 539.511719 439.828125 539 440 C 539.683594 438.523438 540.4375 437.238281 541.5 436 C 541.828125 436 542.160156 436 542.5 436 C 542.632812 435.710938 542.769531 435.421875 542.90625 435.125 C 543.507812 433.984375 544.203125 433.011719 545 432 Z M 545 432 "/>
<path style=" stroke:none;fill-rule:nonzero;fill:rgb(99.215686%,94.509804%,74.509805%);fill-opacity:1;" d="M 355 304.5 C 354.671875 304.5 354.339844 304.5 354 304.5 C 353.835938 304.996094 353.671875 305.488281 353.5 306 C 353.066406 306.023438 352.632812 306.050781 352.183594 306.074219 C 351.605469 306.113281 351.03125 306.148438 350.4375 306.1875 C 349.585938 306.238281 349.585938 306.238281 348.714844 306.292969 C 347.019531 306.496094 345.605469 306.941406 344 307.5 C 342.3125 307.5625 342.3125 307.5625 341 307.5 C 342.703125 305.796875 345.136719 305.667969 347.4375 305.15625 C 347.941406 305.039062 348.445312 304.917969 348.960938 304.796875 C 349.449219 304.6875 349.933594 304.574219 350.433594 304.460938 C 350.878906 304.363281 351.320312 304.261719 351.777344 304.15625 C 353.023438 303.996094 353.820312 304.109375 355 304.5 Z M 355 304.5 "/>
<path style=" stroke:none;fill-rule:nonzero;fill:rgb(91.37255%,74.117649%,26.666668%);fill-opacity:1;" d="M 456 281.5 C 461.410156 282.101562 466.6875 283.351562 472 284.5 C 472 284.664062 472 284.828125 472 285 C 469.125 285.050781 466.324219 285.101562 463.5 284.5 C 463.335938 284.171875 463.171875 283.839844 463 283.5 C 461.925781 283.292969 460.839844 283.132812 459.75 283 C 458.660156 282.867188 457.574219 282.707031 456.5 282.5 C 456.335938 282.171875 456.171875 281.839844 456 281.5 Z M 456 281.5 "/>
<path style=" stroke:none;fill-rule:nonzero;fill:rgb(98.823529%,92.941177%,70.980394%);fill-opacity:1;" d="M 432 278 C 435.613281 277.9375 439.207031 278.027344 442.8125 278.21875 C 443.40625 278.25 443.40625 278.25 444.015625 278.277344 C 446.878906 278.441406 446.878906 278.441406 448 279 C 448 279.328125 448 279.660156 448 280 C 442.65625 279.585938 437.332031 279.042969 432 278.5 C 432 278.335938 432 278.171875 432 278 Z M 432 278 "/>
<path style=" stroke:none;fill-rule:nonzero;fill:rgb(99.215686%,96.078432%,78.431374%);fill-opacity:1;" d="M 418 301 C 422.699219 301.519531 427.363281 302.058594 432 303 C 432 303.164062 432 303.328125 432 303.5 C 421.109375 303.851562 421.109375 303.851562 418.5625 301.710938 C 418.378906 301.476562 418.191406 301.242188 418 301 Z M 418 301 "/>
<path style=" stroke:none;fill-rule:nonzero;fill:rgb(98.431373%,94.117647%,75.294119%);fill-opacity:1;" d="M 564.5 356.5 C 564.828125 356.5 565.160156 356.5 565.5 356.5 C 565.691406 357.664062 565.855469 358.832031 566 360 C 565.835938 360.164062 565.671875 360.328125 565.5 360.5 C 562.277344 360.246094 559.160156 359.679688 556 359 C 556 358.835938 556 358.671875 556 358.5 C 557.3125 358.570312 558.625 358.644531 559.9375 358.71875 C 560.496094 358.75 560.496094 358.75 561.070312 358.777344 C 563.886719 358.945312 563.886719 358.945312 565 359.5 C 564.835938 358.511719 564.671875 357.519531 564.5 356.5 Z M 564.5 356.5 "/>
<path style=" stroke:none;fill-rule:nonzero;fill:rgb(92.54902%,75.294119%,29.411766%);fill-opacity:1;" d="M 302 310 C 302 310.328125 302 310.660156 302 311 C 301.671875 311 301.339844 311 301 311 C 300.835938 311.496094 300.671875 311.988281 300.5 312.5 C 298.609375 313.660156 297.21875 314.195312 295 314 C 295 314.496094 295 314.988281 295 315.5 C 294.339844 315.5 293.679688 315.5 293 315.5 C 293 315.171875 293 314.839844 293 314.5 C 293.550781 314.203125 293.550781 314.203125 294.117188 313.898438 C 294.601562 313.632812 295.089844 313.367188 295.59375 313.09375 C 296.074219 312.832031 296.558594 312.570312 297.054688 312.304688 C 298.003906 311.773438 298.945312 311.222656 299.867188 310.648438 C 301 310 301 310 302 310 Z M 302 310 "/>
<path style=" stroke:none;fill-rule:nonzero;fill:rgb(91.37255%,74.901962%,28.235295%);fill-opacity:1;" d="M 280 331 C 278.832031 332.167969 277.714844 332.460938 276.1875 333 C 273.992188 333.921875 272.007812 335.230469 270 336.5 C 270 336.003906 270 335.511719 270 335 C 271.214844 333.988281 272.621094 333.269531 274 332.5 C 274.515625 332.199219 275.03125 331.902344 275.5625 331.59375 C 277.148438 330.9375 278.300781 330.878906 280 331 Z M 280 331 "/>
<path style=" stroke:none;fill-rule:nonzero;fill:rgb(30.588236%,30.588236%,30.588236%);fill-opacity:1;" d="M 194 455 C 194.164062 455.328125 194.328125 455.660156 194.5 456 C 194.828125 456 195.160156 456 195.5 456 C 194.5625 459.8125 194.5625 459.8125 194 461.5 C 193.671875 461.5 193.339844 461.5 193 461.5 C 192.265625 458.761719 192.78125 457.441406 194 455 Z M 194 455 "/>
<path style=" stroke:none;fill-rule:nonzero;fill:rgb(91.764706%,75.686276%,30.19608%);fill-opacity:1;" d="M 532 287.5 C 532.496094 287.664062 532.988281 287.828125 533.5 288 C 533.335938 288.328125 533.171875 288.660156 533 289 C 532.671875 288.835938 532.339844 288.671875 532 288.5 C 531.867188 288.964844 531.730469 289.429688 531.59375 289.90625 C 531.046875 291.378906 530.734375 292.074219 529.5 293 C 529.171875 293 528.839844 293 528.5 293 C 528.5 293.328125 528.5 293.660156 528.5 294 C 528.171875 294 527.839844 294 527.5 294 C 528.183594 292.007812 529.074219 290.558594 530.5 289 C 530.828125 289 531.160156 289 531.5 289 C 531.664062 288.503906 531.828125 288.011719 532 287.5 Z M 532 287.5 "/>
<path style=" stroke:none;fill-rule:nonzero;fill:rgb(92.941177%,74.117649%,23.137255%);fill-opacity:1;" d="M 485 289.5 C 487.832031 289.683594 490.003906 290.027344 492.5 291.5 C 492.5 291.664062 492.5 291.828125 492.5 292 C 490.355469 292 488.210938 292 486 292 C 485.671875 291.175781 485.339844 290.351562 485 289.5 Z M 485 289.5 "/>
<path style=" stroke:none;fill-rule:nonzero;fill:rgb(98.431373%,92.54902%,70.980394%);fill-opacity:1;" d="M 262 341 C 262 341.328125 262 341.660156 262 342 C 260.5 343 260.5 343 259 343 C 259 343.496094 259 343.988281 259 344.5 C 257.339844 345.210938 255.777344 345.695312 254 346 C 255.402344 344.5 256.796875 343.417969 258.5625 342.375 C 258.996094 342.113281 259.429688 341.855469 259.878906 341.585938 C 261 341 261 341 262 341 Z M 262 341 "/>
<path style=" stroke:none;fill-rule:nonzero;fill:rgb(94.117647%,77.64706%,32.549021%);fill-opacity:1;" d="M 269 330.5 C 269 331.160156 269 331.820312 269 332.5 C 268.175781 332.5 267.351562 332.5 266.5 332.5 C 266.449219 332.808594 266.398438 333.117188 266.34375 333.4375 C 266 334.5 266 334.5 264.5 335.5 C 263.40625 335.3125 263.40625 335.3125 262.5 335 C 262.996094 334.835938 263.488281 334.671875 264 334.5 C 264 334.171875 264 333.839844 264 333.5 C 265.730469 332 265.730469 332 267 332 C 267 331.671875 267 331.339844 267 331 C 268 330.5 268 330.5 269 330.5 Z M 269 330.5 "/>
<path style=" stroke:none;fill-rule:nonzero;fill:rgb(91.37255%,74.901962%,25.882354%);fill-opacity:1;" d="M 522 300 C 522.328125 300 522.660156 300 523 300 C 522.828125 301.53125 522.570312 302.402344 521.65625 303.65625 C 520.136719 304.765625 519.347656 304.765625 517.5 304.5 C 516.0625 303.8125 516.0625 303.8125 515 303 C 515 302.671875 515 302.339844 515 302 C 515.527344 302.175781 516.050781 302.351562 516.59375 302.53125 C 518.851562 303.101562 518.851562 303.101562 521 302.5 C 521.6875 301.261719 521.6875 301.261719 522 300 Z M 522 300 "/>
<path style=" stroke:none;fill-rule:nonzero;fill:rgb(98.823529%,94.117647%,73.333335%);fill-opacity:1;" d="M 504.5 296.5 C 506.898438 296.332031 508.019531 296.679688 510 298 C 511.320312 298.691406 512.660156 299.34375 514 300 C 514 300.328125 514 300.660156 514 301 C 511.765625 300.300781 509.679688 299.433594 507.5625 298.4375 C 506.984375 298.167969 506.410156 297.898438 505.816406 297.621094 C 505.382812 297.417969 504.949219 297.210938 504.5 297 C 504.5 296.835938 504.5 296.671875 504.5 296.5 Z M 504.5 296.5 "/>
<path style=" stroke:none;fill-rule:nonzero;fill:rgb(99.215686%,94.509804%,74.901962%);fill-opacity:1;" d="M 555.5 336 C 556.753906 337.125 557.417969 338.183594 558.09375 339.71875 C 558.265625 340.101562 558.4375 340.480469 558.617188 340.875 C 559 342 559 342 559 344 C 558.671875 344 558.339844 344 558 344 C 557.582031 342.949219 557.164062 341.898438 556.75 340.84375 C 556.519531 340.257812 556.285156 339.671875 556.046875 339.070312 C 555.5 337.5 555.5 337.5 555.5 336 Z M 555.5 336 "/>
<path style=" stroke:none;fill-rule:nonzero;fill:rgb(41.568628%,41.568628%,41.568628%);fill-opacity:1;" d="M 700 389 C 700.328125 389.496094 700.660156 389.988281 701 390.5 C 700.742188 390.871094 700.484375 391.242188 700.21875 391.625 C 699.410156 393.171875 699.511719 393.425781 700 395 C 699.671875 395.328125 699.339844 395.660156 699 396 C 698.835938 395.835938 698.671875 395.671875 698.5 395.5 C 698.003906 395.996094 697.511719 396.488281 697 397 C 697.78125 394.191406 698.582031 391.566406 700 389 Z M 700 389 "/>
<path style=" stroke:none;fill-rule:nonzero;fill:rgb(92.54902%,74.509805%,26.274511%);fill-opacity:1;" d="M 261 336 C 261.164062 336.328125 261.328125 336.660156 261.5 337 C 261.0625 338.21875 261.0625 338.21875 260 339.5 C 258.539062 340.15625 257.050781 340.601562 255.5 341 C 256.167969 340.332031 256.832031 339.667969 257.5 339 C 257.902344 338.566406 257.902344 338.566406 258.3125 338.125 C 259 337.5 259 337.5 260 337.5 C 260 337.171875 260 336.839844 260 336.5 C 260.328125 336.335938 260.660156 336.171875 261 336 Z M 261 336 "/>
<path style=" stroke:none;fill-rule:nonzero;fill:rgb(92.54902%,76.862746%,33.333334%);fill-opacity:1;" d="M 545.5 315 C 546.609375 316.109375 546.960938 316.957031 547.53125 318.40625 C 547.703125 318.832031 547.871094 319.257812 548.046875 319.695312 C 548.488281 320.960938 548.769531 322.183594 549 323.5 C 548.503906 323.335938 548.011719 323.171875 547.5 323 C 547.121094 321.847656 546.792969 320.675781 546.5 319.5 C 546.3125 319.054688 546.128906 318.613281 545.9375 318.15625 C 545.5 317 545.5 317 545.5 315 Z M 545.5 315 "/>
<path style=" stroke:none;fill-rule:nonzero;fill:rgb(32.941177%,32.941177%,32.941177%);fill-opacity:1;" d="M 622 496 C 622.496094 496.164062 622.988281 496.328125 623.5 496.5 C 623.5 497.324219 623.5 498.148438 623.5 499 C 623.171875 499 622.839844 499 622.5 499 C 622.5 499.496094 622.5 499.988281 622.5 500.5 C 621.675781 500.5 620.851562 500.5 620 500.5 C 620.660156 499.015625 621.320312 497.53125 622 496 Z M 622 496 "/>
<path style=" stroke:none;fill-rule:nonzero;fill:rgb(31.37255%,31.37255%,31.37255%);fill-opacity:1;" d="M 502 406.5 C 503.09375 408.140625 503.5 409.601562 504 411.5 C 503.503906 411.664062 503.011719 411.828125 502.5 412 C 502.171875 411.835938 501.839844 411.671875 501.5 411.5 C 501.4375 408.1875 501.4375 408.1875 502 406.5 Z M 502 406.5 "/>
<path style=" stroke:none;fill-rule:nonzero;fill:rgb(90.588236%,74.901962%,28.235295%);fill-opacity:1;" d="M 441 305 C 445.203125 304.734375 448.011719 305.671875 451.5 308 C 449.003906 307.695312 446.699219 307.183594 444.28125 306.46875 C 443.664062 306.289062 443.046875 306.105469 442.40625 305.921875 C 441.945312 305.78125 441.480469 305.644531 441 305.5 C 441 305.335938 441 305.171875 441 305 Z M 441 305 "/>
<path style=" stroke:none;fill-rule:nonzero;fill:rgb(93.333334%,78.039217%,36.470589%);fill-opacity:1;" d="M 335 294 C 335.328125 294.164062 335.660156 294.328125 336 294.5 C 335.679688 294.550781 335.359375 294.601562 335.03125 294.65625 C 334.691406 294.769531 334.351562 294.882812 334 295 C 333.835938 295.496094 333.671875 295.988281 333.5 296.5 C 332.554688 296.847656 332.554688 296.847656 331.375 297.0625 C 330.972656 297.140625 330.566406 297.21875 330.148438 297.296875 C 329.769531 297.363281 329.390625 297.429688 329 297.5 C 328.242188 297.65625 328.242188 297.65625 327.46875 297.8125 C 327.148438 297.875 326.828125 297.9375 326.5 298 C 328.117188 296.523438 329.839844 295.996094 331.890625 295.375 C 333.019531 295.027344 333.019531 295.027344 334.078125 294.421875 C 334.535156 294.214844 334.535156 294.214844 335 294 Z M 335 294 "/>
<path style=" stroke:none;fill-rule:nonzero;fill:rgb(27.058825%,27.058825%,27.058825%);fill-opacity:1;" d="M 310 405.5 C 310.164062 405.5 310.328125 405.5 310.5 405.5 C 310.828125 407.316406 311.160156 409.128906 311.5 411 C 311.003906 411.328125 310.511719 411.660156 310 412 C 309.804688 411.105469 309.621094 410.210938 309.4375 409.3125 C 309.332031 408.8125 309.230469 408.316406 309.121094 407.800781 C 309.082031 407.371094 309.042969 406.941406 309 406.5 C 309.328125 406.171875 309.660156 405.839844 310 405.5 Z M 310 405.5 "/>
<path style=" stroke:none;fill-rule:nonzero;fill:rgb(39.607844%,39.607844%,39.607844%);fill-opacity:1;" d="M 153 397 C 152.71875 397.9375 152.71875 397.9375 152 399 C 149.714844 399.851562 147.414062 400.203125 145 400.5 C 146.265625 399.65625 147.394531 399.070312 148.78125 398.46875 C 152.15625 397 152.15625 397 153 397 Z M 153 397 "/>
<path style=" stroke:none;fill-rule:nonzero;fill:rgb(90.196079%,81.568629%,52.156866%);fill-opacity:1;" d="M 240 353 C 240.660156 353.328125 241.320312 353.660156 242 354 C 241.339844 354.164062 240.679688 354.328125 240 354.5 C 240 354.828125 240 355.160156 240 355.5 C 237.292969 357.5 237.292969 357.5 236 357.5 C 236 357.171875 236 356.839844 236 356.5 C 238.738281 354 238.738281 354 240 354 C 240 353.671875 240 353.339844 240 353 Z M 240 353 "/>
<path style=" stroke:none;fill-rule:nonzero;fill:rgb(95.686275%,81.176472%,43.529412%);fill-opacity:1;" d="M 247 347 C 247.328125 347.164062 247.660156 347.328125 248 347.5 C 247.503906 348.242188 247.503906 348.242188 247 349 C 247.660156 349 248.320312 349 249 349 C 249 349.328125 249 349.660156 249 350 C 248.011719 350.328125 247.019531 350.660156 246 351 C 246.164062 350.503906 246.328125 350.011719 246.5 349.5 C 245.675781 349.664062 244.851562 349.828125 244 350 C 245 349 246 348 247 347 Z M 247 347 "/>
<path style=" stroke:none;fill-rule:nonzero;fill:rgb(92.941177%,75.294119%,27.450982%);fill-opacity:1;" d="M 464 312.5 C 465.320312 312.5 466.640625 312.5 468 312.5 C 468.164062 312.828125 468.328125 313.160156 468.5 313.5 C 468.996094 313.664062 469.488281 313.828125 470 314 C 470 314.328125 470 314.660156 470 315 C 470.328125 315.164062 470.660156 315.328125 471 315.5 C 469.515625 315.253906 469.515625 315.253906 468 315 C 468 314.671875 468 314.339844 468 314 C 467.527344 313.9375 467.050781 313.875 466.5625 313.8125 C 465 313.5 465 313.5 464 312.5 Z M 464 312.5 "/>
<path style=" stroke:none;fill-rule:nonzero;fill:rgb(98.823529%,95.294118%,75.686276%);fill-opacity:1;" d="M 464 282.5 C 466.902344 282.320312 468.820312 282.871094 471.5 284 C 469.902344 284.515625 468.816406 284.472656 467.1875 284.09375 C 466.800781 284.007812 466.410156 283.921875 466.011719 283.835938 C 465 283.5 465 283.5 464 282.5 Z M 464 282.5 "/>
<path style=" stroke:none;fill-rule:nonzero;fill:rgb(36.862746%,36.862746%,36.862746%);fill-opacity:1;" d="M 537.5 441 C 537.828125 441.660156 538.160156 442.320312 538.5 443 C 538.003906 442.835938 537.511719 442.671875 537 442.5 C 536.292969 443.820312 535.8125 445.035156 535.5 446.5 C 534.839844 446.5 534.179688 446.5 533.5 446.5 C 534.183594 445.003906 534.972656 443.855469 536.0625 442.625 C 536.332031 442.316406 536.601562 442.011719 536.878906 441.695312 C 537.1875 441.351562 537.1875 441.351562 537.5 441 Z M 537.5 441 "/>
<path style=" stroke:none;fill-rule:nonzero;fill:rgb(34.509805%,34.509805%,34.509805%);fill-opacity:1;" d="M 556.5 418.5 C 557.195312 420.589844 556.410156 421.566406 555.5 423.5 C 554.839844 423.5 554.179688 423.5 553.5 423.5 C 553.5 421.738281 553.851562 421.28125 555 420 C 555.328125 420 555.660156 420 556 420 C 556.164062 419.503906 556.328125 419.011719 556.5 418.5 Z M 556.5 418.5 "/>
<path style=" stroke:none;fill-rule:nonzero;fill:rgb(99.607843%,96.078432%,77.254903%);fill-opacity:1;" d="M 352 288 C 350.75 289.25 349.675781 289.519531 348 290.0625 C 347.464844 290.238281 346.925781 290.414062 346.375 290.597656 C 345 291 345 291 344 291 C 344 290.671875 344 290.339844 344 290 C 344.863281 289.660156 345.726562 289.328125 346.59375 289 C 347.074219 288.8125 347.558594 288.628906 348.054688 288.4375 C 349.460938 288.011719 350.539062 287.914062 352 288 Z M 352 288 "/>
<path style=" stroke:none;fill-rule:nonzero;fill:rgb(99.607843%,97.254902%,82.352942%);fill-opacity:1;" d="M 385.875 279.46875 C 386.273438 279.472656 386.675781 279.476562 387.085938 279.484375 C 387.386719 279.488281 387.6875 279.492188 388 279.5 C 385.429688 281.214844 382.996094 281.050781 380 281 C 382.019531 279.652344 383.476562 279.433594 385.875 279.46875 Z M 385.875 279.46875 "/>
<path style=" stroke:none;fill-rule:nonzero;fill:rgb(28.627452%,28.627452%,28.627452%);fill-opacity:1;" d="M 701 452 C 701.328125 452.328125 701.660156 452.660156 702 453 C 701.878906 454.082031 701.878906 454.082031 701.5625 455.3125 C 701.460938 455.722656 701.359375 456.128906 701.253906 456.550781 C 701.171875 456.863281 701.085938 457.175781 701 457.5 C 700.503906 457.5 700.011719 457.5 699.5 457.5 C 699.65625 456.769531 699.8125 456.042969 699.96875 455.3125 C 700.054688 454.90625 700.144531 454.5 700.234375 454.082031 C 700.5 453 700.5 453 701 452 Z M 701 452 "/>
<path style=" stroke:none;fill-rule:nonzero;fill:rgb(84.705883%,84.705883%,84.705883%);fill-opacity:1;" d="M 432.5 405.5 C 432.5 407 432.5 407 431.40625 408.242188 C 430.941406 408.6875 430.476562 409.132812 430 409.59375 C 429.535156 410.042969 429.070312 410.496094 428.59375 410.960938 C 428.234375 411.300781 427.871094 411.644531 427.5 412 C 427.5 409.988281 428.164062 409.480469 429.5 408 C 430.476562 407.128906 431.476562 406.316406 432.5 405.5 Z M 432.5 405.5 "/>
<path style=" stroke:none;fill-rule:nonzero;fill:rgb(90.980393%,74.901962%,31.37255%);fill-opacity:1;" d="M 563 354.5 C 564 355 564 355 564.5625 356.15625 C 565 357.5 565 357.5 565 359.5 C 563.351562 359.335938 561.699219 359.171875 560 359 C 560 358.835938 560 358.671875 560 358.5 C 561.320312 358.5 562.640625 358.5 564 358.5 C 563.835938 358.210938 563.671875 357.921875 563.5 357.625 C 563 356.5 563 356.5 563 354.5 Z M 563 354.5 "/>
<path style=" stroke:none;fill-rule:nonzero;fill:rgb(27.058825%,27.058825%,27.058825%);fill-opacity:1;" d="M 168.5 476.5 C 169.160156 476.664062 169.820312 476.828125 170.5 477 C 170.5 477.328125 170.5 477.660156 170.5 478 C 170.996094 478.164062 171.488281 478.328125 172 478.5 C 168.800781 479.117188 168.800781 479.117188 167.28125 478.53125 C 167.023438 478.355469 166.765625 478.179688 166.5 478 C 166.996094 478 167.488281 478 168 478 C 168.164062 477.503906 168.328125 477.011719 168.5 476.5 Z M 168.5 476.5 "/>
<path style=" stroke:none;fill-rule:nonzero;fill:rgb(26.666668%,26.666668%,26.666668%);fill-opacity:1;" d="M 426 410 C 426.328125 410.660156 426.660156 411.320312 427 412 C 426.339844 412.824219 425.679688 413.648438 425 414.5 C 424.671875 414.335938 424.339844 414.171875 424 414 C 424.5625 412.515625 425.113281 411.332031 426 410 Z M 426 410 "/>
<path style=" stroke:none;fill-rule:nonzero;fill:rgb(26.274511%,26.274511%,26.274511%);fill-opacity:1;" d="M 600.5 403 C 602.054688 403 602.675781 403.269531 604 404 C 603.671875 404 603.339844 404 603 404 C 602.671875 404.660156 602.339844 405.320312 602 406 C 601.503906 406 601.011719 406 600.5 406 C 600.5 405.011719 600.5 404.019531 600.5 403 Z M 600.5 403 "/>
<path style=" stroke:none;fill-rule:nonzero;fill:rgb(38.82353%,38.82353%,38.82353%);fill-opacity:1;" d="M 219 385.5 C 219.328125 385.664062 219.660156 385.828125 220 386 C 219.3125 387 219.3125 387 218.5 388 C 218.171875 388 217.839844 388 217.5 388 C 217.664062 388.824219 217.828125 389.648438 218 390.5 C 217.339844 390.003906 216.679688 389.511719 216 389 C 216.695312 387.316406 217.488281 386.507812 219 385.5 Z M 219 385.5 "/>
<path style=" stroke:none;fill-rule:nonzero;fill:rgb(99.215686%,94.117647%,73.725492%);fill-opacity:1;" d="M 552 329.5 C 553.371094 330.003906 553.90625 330.332031 554.625 331.625 C 555.039062 333.140625 555.074219 334.4375 555 336 C 554.21875 334.828125 553.566406 333.71875 552.9375 332.46875 C 552.671875 331.949219 552.671875 331.949219 552.402344 331.421875 C 552 330.5 552 330.5 552 329.5 Z M 552 329.5 "/>
<path style=" stroke:none;fill-rule:nonzero;fill:rgb(32.156864%,32.156864%,32.156864%);fill-opacity:1;" d="M 469.5 449 C 469.664062 449.328125 469.828125 449.660156 470 450 C 470.496094 449.835938 470.988281 449.671875 471.5 449.5 C 471.335938 449.996094 471.171875 450.488281 471 451 C 470.671875 451 470.339844 451 470 451 C 470 451.328125 470 451.660156 470 452 C 469.175781 452 468.351562 452 467.5 452 C 468.9375 449.5625 468.9375 449.5625 469.5 449 Z M 469.5 449 "/>
<path style=" stroke:none;fill-rule:nonzero;fill:rgb(37.254903%,37.254903%,37.254903%);fill-opacity:1;" d="M 466.5 377.5 C 468.402344 377.835938 470.175781 378.363281 472 379 C 471.503906 379.328125 471.011719 379.660156 470.5 380 C 470.5 379.671875 470.5 379.339844 470.5 379 C 470.117188 379.101562 469.738281 379.207031 469.34375 379.3125 C 468 379.5 468 379.5 466.5 378.5 C 466.5 378.171875 466.5 377.839844 466.5 377.5 Z M 466.5 377.5 "/>
<path style=" stroke:none;fill-rule:nonzero;fill:rgb(94.117647%,71.764708%,9.019608%);fill-opacity:1;" d="M 253.5 343.5 C 253.664062 343.996094 253.828125 344.488281 254 345 C 253.339844 345.164062 252.679688 345.328125 252 345.5 C 252 345.828125 252 346.160156 252 346.5 C 251.339844 346.5 250.679688 346.5 250 346.5 C 250.5 345 250.5 345 252.03125 344.15625 C 252.515625 343.941406 253 343.722656 253.5 343.5 Z M 253.5 343.5 "/>
<path style=" stroke:none;fill-rule:nonzero;fill:rgb(92.941177%,75.294119%,27.843139%);fill-opacity:1;" d="M 476 318 C 477.15625 318 478.308594 318 479.5 318 C 479.5 318.496094 479.5 318.988281 479.5 319.5 C 480.160156 319.828125 480.820312 320.160156 481.5 320.5 C 479.898438 320.5 478.953125 320.128906 477.5 319.5 C 477.5 319.171875 477.5 318.839844 477.5 318.5 C 477.003906 318.335938 476.511719 318.171875 476 318 Z M 476 318 "/>
<path style=" stroke:none;fill-rule:nonzero;fill:rgb(92.156863%,71.372551%,13.725491%);fill-opacity:1;" d="M 388 281 C 386.609375 281.925781 386.097656 282.171875 384.53125 282.375 C 384.03125 282.449219 384.03125 282.449219 383.515625 282.523438 C 382.289062 282.496094 381.554688 282.113281 380.5 281.5 C 380.96875 281.453125 380.96875 281.453125 381.449219 281.40625 C 382.0625 281.34375 382.0625 281.34375 382.6875 281.28125 C 383.09375 281.242188 383.5 281.199219 383.917969 281.15625 C 387.015625 280.707031 387.015625 280.707031 388 281 Z M 388 281 "/>
<path style=" stroke:none;fill-rule:nonzero;fill:rgb(29.411766%,29.411766%,29.411766%);fill-opacity:1;" d="M 260 481.5 C 261.5625 481.597656 262.5625 482.28125 264 483 C 261.03125 483.246094 261.03125 483.246094 258 483.5 C 258.660156 482.839844 259.320312 482.179688 260 481.5 Z M 260 481.5 "/>
<path style=" stroke:none;fill-rule:nonzero;fill:rgb(40.784314%,40.784314%,40.784314%);fill-opacity:1;" d="M 474 440 C 474.457031 441.539062 474.664062 442.894531 474.5 444.5 C 473.8125 445.40625 473.8125 445.40625 473 446 C 472.671875 446 472.339844 446 472 446 C 472.667969 444 473.332031 442 474 440 Z M 474 440 "/>
<path style=" stroke:none;fill-rule:nonzero;fill:rgb(25.882354%,25.882354%,25.882354%);fill-opacity:1;" d="M 582 426 C 582.660156 426.164062 583.320312 426.328125 584 426.5 C 583.316406 428.082031 583.003906 428.496094 581.5 429.5 C 581.5 427.5 581.5 427.5 582 426 Z M 582 426 "/>
<path style=" stroke:none;fill-rule:nonzero;fill:rgb(30.980393%,30.980393%,30.980393%);fill-opacity:1;" d="M 407 390.5 C 407.328125 390.996094 407.660156 391.488281 408 392 C 407.671875 392.660156 407.339844 393.320312 407 394 C 406.339844 393.503906 405.679688 393.011719 405 392.5 C 405.660156 391.839844 406.320312 391.179688 407 390.5 Z M 407 390.5 "/>
<path style=" stroke:none;fill-rule:nonzero;fill:rgb(91.37255%,77.64706%,37.254903%);fill-opacity:1;" d="M 486.5 348 C 486.59375 348.449219 486.59375 348.449219 486.6875 348.90625 C 486.976562 350.132812 486.976562 350.132812 488 351.5 C 487.011719 351.5 486.019531 351.5 485 351.5 C 485.375 349.125 485.375 349.125 486.5 348 Z M 486.5 348 "/>
<path style=" stroke:none;fill-rule:nonzero;fill:rgb(90.980393%,72.156864%,19.607843%);fill-opacity:1;" d="M 266.5 336.5 C 267.53125 336.71875 267.53125 336.71875 268.5 337 C 265.125 339 265.125 339 264 339 C 264 339.328125 264 339.660156 264 340 C 263.671875 339.835938 263.339844 339.671875 263 339.5 C 263.164062 339.003906 263.328125 338.511719 263.5 338 C 264.75 337.4375 264.75 337.4375 266 337 C 266.164062 336.835938 266.328125 336.671875 266.5 336.5 Z M 266.5 336.5 "/>
<path style=" stroke:none;fill-rule:nonzero;fill:rgb(94.117647%,75.686276%,29.411766%);fill-opacity:1;" d="M 549.5 324 C 550.960938 325.949219 551.238281 326.691406 551.5 329 C 551.171875 329 550.839844 329 550.5 329 C 550.335938 329.328125 550.171875 329.660156 550 330 C 549.835938 328.019531 549.671875 326.039062 549.5 324 Z M 549.5 324 "/>
<path style=" stroke:none;fill-rule:nonzero;fill:rgb(33.725491%,33.725491%,33.725491%);fill-opacity:1;" d="M 699 460 C 699.164062 460.328125 699.328125 460.660156 699.5 461 C 699.03125 462.015625 698.535156 463.019531 698 464 C 697.671875 464 697.339844 464 697 464 C 697.164062 462.84375 697.328125 461.691406 697.5 460.5 C 697.996094 460.335938 698.488281 460.171875 699 460 Z M 699 460 "/>
<path style=" stroke:none;fill-rule:nonzero;fill:rgb(27.843139%,27.843139%,27.843139%);fill-opacity:1;" d="M 495 395.5 C 495.496094 395.996094 495.988281 396.488281 496.5 397 C 496.171875 397.660156 495.839844 398.320312 495.5 399 C 495.5 398.671875 495.5 398.339844 495.5 398 C 495.003906 398 494.511719 398 494 398 C 494.328125 397.175781 494.660156 396.351562 495 395.5 Z M 494 399 C 495.5 399.5 495.5 399.5 495.5 399.5 Z M 494 399 "/>
<path style=" stroke:none;fill-rule:nonzero;fill:rgb(92.54902%,75.294119%,25.098041%);fill-opacity:1;" d="M 491 342.5 C 491.5 343.5 491.5 343.5 491.15625 344.78125 C 490.5 346 490.5 346 489.4375 346.40625 C 489.128906 346.4375 488.820312 346.46875 488.5 346.5 C 489.875 343.0625 489.875 343.0625 491 342.5 Z M 491 342.5 "/>
<path style=" stroke:none;fill-rule:nonzero;fill:rgb(99.607843%,95.294118%,78.823531%);fill-opacity:1;" d="M 341 307.5 C 341 307.828125 341 308.160156 341 308.5 C 339.558594 308.980469 338.652344 309.054688 337.15625 309.03125 C 336.550781 309.023438 336.550781 309.023438 335.929688 309.015625 C 335.46875 309.007812 335.46875 309.007812 335 309 C 337.128906 307.910156 338.578125 307.5 341 307.5 Z M 341 307.5 "/>
<path style=" stroke:none;fill-rule:nonzero;fill:rgb(94.901961%,84.313726%,50.196081%);fill-opacity:1;" d="M 472 285 C 473.320312 285 474.640625 285 476 285 C 476 285.328125 476 285.660156 476 286 C 476.824219 286.164062 477.648438 286.328125 478.5 286.5 C 476.785156 287.09375 475.8125 286.902344 474.125 286.28125 C 473.726562 286.136719 473.324219 285.992188 472.914062 285.84375 C 472.613281 285.730469 472.3125 285.617188 472 285.5 C 472 285.335938 472 285.171875 472 285 Z M 472 285 "/>
<path style=" stroke:none;fill-rule:nonzero;fill:rgb(39.215687%,39.215687%,39.215687%);fill-opacity:1;" d="M 562.5 411.5 C 562.5 413.097656 562.382812 413.699219 561.5 415 C 560.1875 415.625 560.1875 415.625 559 416 C 559.488281 415.34375 559.980469 414.6875 560.46875 414.03125 C 560.742188 413.664062 561.015625 413.300781 561.296875 412.921875 C 562 412 562 412 562.5 411.5 Z M 562.5 411.5 "/>
<path style=" stroke:none;fill-rule:nonzero;fill:rgb(35.686275%,35.686275%,35.686275%);fill-opacity:1;" d="M 186 394 C 186.164062 394.328125 186.328125 394.660156 186.5 395 C 186.828125 395 187.160156 395 187.5 395 C 187.171875 395.988281 186.839844 396.980469 186.5 398 C 186.171875 398 185.839844 398 185.5 398 C 185.335938 398.328125 185.171875 398.660156 185 399 C 185.164062 398.175781 185.328125 397.351562 185.5 396.5 C 185.828125 396.5 186.160156 396.5 186.5 396.5 C 186.5 396.171875 186.5 395.839844 186.5 395.5 C 186.171875 395.335938 185.839844 395.171875 185.5 395 C 185.664062 394.671875 185.828125 394.339844 186 394 Z M 186 394 "/>
<path style=" stroke:none;fill-rule:nonzero;fill:rgb(25.882354%,25.882354%,25.882354%);fill-opacity:1;" d="M 217.5 388 C 218.570312 388.886719 218.980469 389.4375 219.40625 390.78125 C 219.4375 391.183594 219.46875 391.585938 219.5 392 C 219.171875 392.328125 218.839844 392.660156 218.5 393 C 217.699219 391.246094 217.390625 389.929688 217.5 388 Z M 217.5 388 "/>
<path style=" stroke:none;fill-rule:nonzero;fill:rgb(32.941177%,32.941177%,32.941177%);fill-opacity:1;" d="M 184.5 362.5 C 185.898438 363.765625 186.730469 364.601562 187 366.5 C 185.761719 366.003906 185.761719 366.003906 184.5 365.5 C 184.5 364.511719 184.5 363.519531 184.5 362.5 Z M 184.5 362.5 "/>
<path style=" stroke:none;fill-rule:nonzero;fill:rgb(92.54902%,74.117649%,25.882354%);fill-opacity:1;" d="M 554 334.5 C 554.164062 334.996094 554.328125 335.488281 554.5 336 C 554.828125 336 555.160156 336 555.5 336 C 555.664062 337.15625 555.828125 338.308594 556 339.5 C 555.503906 339.335938 555.011719 339.171875 554.5 339 C 554.335938 337.515625 554.171875 336.03125 554 334.5 Z M 554 334.5 "/>
<path style=" stroke:none;fill-rule:nonzero;fill:rgb(99.215686%,95.686275%,74.901962%);fill-opacity:1;" d="M 335 309.5 C 332.886719 310.707031 331.4375 311.175781 329 311 C 332.589844 308.605469 332.589844 308.605469 335 309.5 Z M 335 309.5 "/>
<path style=" stroke:none;fill-rule:nonzero;fill:rgb(91.764706%,75.294119%,28.235295%);fill-opacity:1;" d="M 343 292.5 C 341.480469 293.511719 340.902344 293.660156 339.15625 293.8125 C 338.753906 293.851562 338.347656 293.886719 337.929688 293.925781 C 337.625 293.949219 337.316406 293.976562 337 294 C 337.5 293 337.5 293 339.15625 292.40625 C 340.789062 292.046875 341.496094 291.898438 343 292.5 Z M 343 292.5 "/>
<path style=" stroke:none;fill-rule:nonzero;fill:rgb(99.607843%,94.901961%,75.686276%);fill-opacity:1;" d="M 360 286 C 359.105469 286.347656 358.210938 286.691406 357.3125 287.03125 C 356.8125 287.222656 356.316406 287.414062 355.800781 287.609375 C 354.5 288 354.5 288 353.5 287.5 C 355.503906 285.726562 357.425781 285.140625 360 286 Z M 360 286 "/>
<path style=" stroke:none;fill-rule:nonzero;fill:rgb(40.000001%,40.000001%,40.000001%);fill-opacity:1;" d="M 625 490.5 C 626.234375 491.074219 627.023438 491.523438 628 492.5 C 627.503906 492.828125 627.011719 493.160156 626.5 493.5 C 626.003906 493.335938 625.511719 493.171875 625 493 C 625.328125 492.503906 625.660156 492.011719 626 491.5 C 625.503906 491.664062 625.011719 491.828125 624.5 492 C 624.664062 491.503906 624.828125 491.011719 625 490.5 Z M 625 490.5 "/>
<path style=" stroke:none;fill-rule:nonzero;fill:rgb(92.941177%,76.078433%,29.803923%);fill-opacity:1;" d="M 496.5 334.5 C 496.664062 334.828125 496.828125 335.160156 497 335.5 C 496.609375 336.472656 496.609375 336.472656 496.03125 337.5625 C 495.839844 337.925781 495.652344 338.285156 495.453125 338.660156 C 495.304688 338.9375 495.15625 339.214844 495 339.5 C 494.503906 339.5 494.011719 339.5 493.5 339.5 C 493.664062 339.003906 493.828125 338.511719 494 338 C 494.328125 338 494.660156 338 495 338 C 495.15625 337.515625 495.308594 337.03125 495.46875 336.53125 C 496 335 496 335 496.5 334.5 Z M 496.5 334.5 "/>
<path style=" stroke:none;fill-rule:nonzero;fill:rgb(92.941177%,77.64706%,33.725491%);fill-opacity:1;" d="M 525 296 C 525.328125 296 525.660156 296 526 296 C 526 296.660156 526 297.320312 526 298 C 524.75 299.125 524.75 299.125 523.5 300 C 523.5 298.199219 523.980469 297.453125 525 296 Z M 525 296 "/>
<path style=" stroke:none;fill-rule:nonzero;fill:rgb(32.156864%,32.156864%,32.156864%);fill-opacity:1;" d="M 625 517.5 C 626.898438 517.769531 627.734375 518.601562 629 520 C 627.28125 519.59375 627.28125 519.59375 625.5 519 C 625.335938 518.503906 625.171875 518.011719 625 517.5 Z M 625 517.5 "/>
<path style=" stroke:none;fill-rule:nonzero;fill:rgb(30.19608%,30.19608%,30.19608%);fill-opacity:1;" d="M 492 465.5 C 492.328125 465.5 492.660156 465.5 493 465.5 C 492.253906 467.398438 491.121094 468.304688 489.5 469.5 C 489.5 469.003906 489.5 468.511719 489.5 468 C 489.828125 468 490.160156 468 490.5 468 C 490.664062 467.503906 490.828125 467.011719 491 466.5 C 491.328125 466.5 491.660156 466.5 492 466.5 C 492 466.171875 492 465.839844 492 465.5 Z M 492 465.5 "/>
<path style=" stroke:none;fill-rule:nonzero;fill:rgb(35.686275%,35.686275%,35.686275%);fill-opacity:1;" d="M 545 432 C 546 433.5 546 433.5 546 434.5 C 545.503906 434.5 545.011719 434.5 544.5 434.5 C 544.335938 434.828125 544.171875 435.160156 544 435.5 C 543.503906 435.335938 543.011719 435.171875 542.5 435 C 543.324219 434.011719 544.148438 433.019531 545 432 Z M 545 432 "/>
<path style=" stroke:none;fill-rule:nonzero;fill:rgb(25.882354%,25.882354%,25.882354%);fill-opacity:1;" d="M 594.5 412.5 C 594.59375 413.6875 594.59375 413.6875 594.5 415 C 594.003906 415.328125 593.511719 415.660156 593 416 C 592.65625 415.09375 592.65625 415.09375 592.5 414 C 593.679688 412.5 593.679688 412.5 594.5 412.5 Z M 594.5 412.5 "/>
<path style=" stroke:none;fill-rule:nonzero;fill:rgb(35.294119%,35.294119%,35.294119%);fill-opacity:1;" d="M 309 401.5 C 310.070312 403.105469 310.238281 403.636719 310 405.5 C 309.503906 405.828125 309.011719 406.160156 308.5 406.5 C 308.449219 404.753906 308.609375 403.203125 309 401.5 Z M 309 401.5 "/>
<path style=" stroke:none;fill-rule:nonzero;fill:rgb(92.156863%,76.078433%,33.333334%);fill-opacity:1;" d="M 471 315.5 C 472.867188 315.75 473.90625 315.9375 475.5 317 C 475.5 317.328125 475.5 317.660156 475.5 318 C 473.613281 317.453125 472.265625 317.046875 471 315.5 Z M 471 315.5 "/>
<path style=" stroke:none;fill-rule:nonzero;fill:rgb(41.176471%,41.176471%,41.176471%);fill-opacity:1;" d="M 541.5 436 C 541.664062 436.660156 541.828125 437.320312 542 438 C 541.175781 438.660156 540.351562 439.320312 539.5 440 C 539.5 438.046875 540.253906 437.441406 541.5 436 Z M 541.5 436 "/>
<path style=" stroke:none;fill-rule:nonzero;fill:rgb(25.882354%,25.882354%,25.882354%);fill-opacity:1;" d="M 546 431 C 546.660156 431.164062 547.320312 431.328125 548 431.5 C 546.515625 432.738281 546.515625 432.738281 545 434 C 545.328125 433.011719 545.660156 432.019531 546 431 Z M 546 431 "/>
<path style=" stroke:none;fill-rule:nonzero;fill:rgb(43.529412%,43.529412%,43.529412%);fill-opacity:1;" d="M 633 420 C 633.496094 420 633.988281 420 634.5 420 C 634.902344 421.972656 635 423 634.5 425 C 634.003906 423.351562 633.511719 421.699219 633 420 Z M 633 420 "/>
<path style=" stroke:none;fill-rule:nonzero;fill:rgb(25.882354%,25.882354%,25.882354%);fill-opacity:1;" d="M 231 404.5 C 231.496094 404.5 231.988281 404.5 232.5 404.5 C 232.335938 405.160156 232.171875 405.820312 232 406.5 C 231.339844 406.664062 230.679688 406.828125 230 407 C 230.328125 406.175781 230.660156 405.351562 231 404.5 Z M 231 404.5 "/>
<path style=" stroke:none;fill-rule:nonzero;fill:rgb(90.588236%,72.156864%,22.352941%);fill-opacity:1;" d="M 246.5 349.5 C 246.335938 349.996094 246.171875 350.488281 246 351 C 245.671875 351 245.339844 351 245 351 C 245 351.328125 245 351.660156 245 352 C 244.503906 352 244.011719 352 243.5 352 C 243.65625 351.03125 243.65625 351.03125 244 350 C 245.5 349.5 245.5 349.5 246.5 349.5 Z M 246.5 349.5 "/>
<path style=" stroke:none;fill-rule:nonzero;fill:rgb(97.254902%,71.372551%,7.450981%);fill-opacity:1;" d="M 258.5 339.5 C 258.996094 339.5 259.488281 339.5 260 339.5 C 260 339.996094 260 340.488281 260 341 C 259.339844 341 258.679688 341 258 341 C 258.164062 340.503906 258.328125 340.011719 258.5 339.5 Z M 257.5 341 C 257.664062 341.328125 257.828125 341.660156 258 342 C 257.671875 341.835938 257.339844 341.671875 257 341.5 C 257.164062 341.335938 257.328125 341.171875 257.5 341 Z M 257.5 341 "/>
<path style=" stroke:none;fill-rule:nonzero;fill:rgb(93.333334%,76.47059%,33.333334%);fill-opacity:1;" d="M 274.5 327 C 274 328.5 274 328.5 272.5 329.5 C 271.40625 329.3125 271.40625 329.3125 270.5 329 C 273.375 327 273.375 327 274.5 327 Z M 274.5 327 "/>
<path style=" stroke:none;fill-rule:nonzero;fill:rgb(91.37255%,74.509805%,27.843139%);fill-opacity:1;" d="M 302.5 320.5 C 301.855469 320.847656 301.210938 321.191406 300.5625 321.53125 C 300.023438 321.820312 300.023438 321.820312 299.472656 322.109375 C 299.152344 322.238281 298.832031 322.367188 298.5 322.5 C 298.171875 322.335938 297.839844 322.171875 297.5 322 C 299.066406 320.199219 300.203125 319.734375 302.5 320.5 Z M 302.5 320.5 "/>
<path style=" stroke:none;fill-rule:nonzero;fill:rgb(99.215686%,94.509804%,74.509805%);fill-opacity:1;" d="M 464 313 C 464.921875 313.171875 464.921875 313.171875 466.03125 313.46875 C 466.582031 313.613281 466.582031 313.613281 467.140625 313.765625 C 467.566406 313.878906 467.566406 313.878906 468 314 C 468 314.328125 468 314.660156 468 315 C 466.328125 314.722656 464.984375 314.324219 463.5 313.5 C 463.664062 313.335938 463.828125 313.171875 464 313 Z M 464 313 "/>
</g>
</svg>
